<svg xmlns="http://www.w3.org/2000/svg" xmlns:xlink="http://www.w3.org/1999/xlink" width="528" zoomAndPan="magnify" viewBox="0 0 396 305.999988" height="408" preserveAspectRatio="xMidYMid meet" version="1.0"><defs><g/><clipPath id="b1aef5d44e"><path d="M 185.367188 144.335938 L 194.03125 144.335938 L 194.03125 153 L 185.367188 153 Z M 185.367188 144.335938 " clip-rule="nonzero"/></clipPath><clipPath id="c14ccbaafa"><path d="M 189.699219 144.335938 C 187.308594 144.335938 185.367188 146.273438 185.367188 148.667969 C 185.367188 151.058594 187.308594 153 189.699219 153 C 192.09375 153 194.03125 151.058594 194.03125 148.667969 C 194.03125 146.273438 192.09375 144.335938 189.699219 144.335938 Z M 189.699219 144.335938 " clip-rule="nonzero"/></clipPath><clipPath id="6b66b8d048"><path d="M 264.304688 142.503906 L 274.761719 142.503906 L 274.761719 152.960938 L 264.304688 152.960938 Z M 264.304688 142.503906 " clip-rule="nonzero"/></clipPath><clipPath id="918220120e"><path d="M 269.535156 142.503906 C 266.648438 142.503906 264.304688 144.84375 264.304688 147.734375 C 264.304688 150.621094 266.648438 152.960938 269.535156 152.960938 C 272.421875 152.960938 274.761719 150.621094 274.761719 147.734375 C 274.761719 144.84375 272.421875 142.503906 269.535156 142.503906 Z M 269.535156 142.503906 " clip-rule="nonzero"/></clipPath></defs><g fill="#0f3551" fill-opacity="1"><g transform="translate(45.646879, 158.427966)"><g><path d="M 15.125 0.421875 C 13.226562 0.421875 11.519531 0.09375 10 -0.5625 C 8.476562 -1.226562 7.175781 -2.175781 6.09375 -3.40625 C 5.019531 -4.632812 4.191406 -6.125 3.609375 -7.875 C 3.035156 -9.632812 2.75 -11.585938 2.75 -13.734375 C 2.75 -15.960938 3.015625 -18.066406 3.546875 -20.046875 C 4.085938 -22.023438 4.851562 -23.75 5.84375 -25.21875 C 6.832031 -26.6875 8.023438 -27.84375 9.421875 -28.6875 C 10.828125 -29.53125 12.375 -29.953125 14.0625 -29.953125 C 16.039062 -29.953125 17.625 -29.398438 18.8125 -28.296875 C 20 -27.203125 20.59375 -25.765625 20.59375 -23.984375 C 20.59375 -23.222656 20.5 -22.53125 20.3125 -21.90625 C 20.132812 -21.28125 19.894531 -20.75 19.59375 -20.3125 C 19.300781 -19.875 18.96875 -19.535156 18.59375 -19.296875 C 18.226562 -19.054688 17.878906 -18.9375 17.546875 -18.9375 C 17.117188 -18.9375 16.734375 -19.09375 16.390625 -19.40625 C 16.054688 -19.71875 15.890625 -20.113281 15.890625 -20.59375 C 15.890625 -20.9375 15.957031 -21.210938 16.09375 -21.421875 C 16.238281 -21.628906 16.390625 -21.847656 16.546875 -22.078125 C 16.703125 -22.304688 16.847656 -22.5625 16.984375 -22.84375 C 17.128906 -23.125 17.203125 -23.503906 17.203125 -23.984375 C 17.203125 -24.722656 16.921875 -25.335938 16.359375 -25.828125 C 15.796875 -26.316406 15.03125 -26.5625 14.0625 -26.5625 C 13.050781 -26.5625 12.0625 -26.28125 11.09375 -25.71875 C 10.132812 -25.15625 9.285156 -24.328125 8.546875 -23.234375 C 7.816406 -22.148438 7.234375 -20.8125 6.796875 -19.21875 C 6.359375 -17.625 6.140625 -15.796875 6.140625 -13.734375 C 6.140625 -12.117188 6.328125 -10.644531 6.703125 -9.3125 C 7.085938 -7.988281 7.65625 -6.851562 8.40625 -5.90625 C 9.15625 -4.957031 10.085938 -4.226562 11.203125 -3.71875 C 12.316406 -3.21875 13.625 -2.96875 15.125 -2.96875 C 17.25 -2.96875 19.054688 -3.566406 20.546875 -4.765625 C 22.046875 -5.960938 23.207031 -7.648438 24.03125 -9.828125 C 24.144531 -10.109375 24.347656 -10.34375 24.640625 -10.53125 C 24.941406 -10.71875 25.242188 -10.8125 25.546875 -10.8125 C 26.023438 -10.8125 26.421875 -10.640625 26.734375 -10.296875 C 27.046875 -9.953125 27.203125 -9.570312 27.203125 -9.15625 C 27.203125 -9.039062 27.203125 -8.941406 27.203125 -8.859375 C 27.203125 -8.773438 27.175781 -8.660156 27.125 -8.515625 C 26.664062 -7.242188 26.078125 -6.0625 25.359375 -4.96875 C 24.640625 -3.882812 23.785156 -2.941406 22.796875 -2.140625 C 21.804688 -1.335938 20.664062 -0.707031 19.375 -0.25 C 18.09375 0.195312 16.675781 0.421875 15.125 0.421875 Z M 15.125 0.421875 "/></g></g></g><g fill="#0f3551" fill-opacity="1"><g transform="translate(66.495358, 158.427966)"><g><path d="M 19.0625 0.21875 C 16.1875 0.21875 14.75 -1.773438 14.75 -5.765625 C 14.75 -6.472656 14.796875 -7.242188 14.890625 -8.078125 C 14.992188 -8.910156 15.109375 -9.734375 15.234375 -10.546875 C 15.359375 -11.367188 15.476562 -12.144531 15.59375 -12.875 C 15.707031 -13.613281 15.765625 -14.222656 15.765625 -14.703125 C 15.765625 -15.859375 15.351562 -16.4375 14.53125 -16.4375 C 14 -16.4375 13.394531 -16.164062 12.71875 -15.625 C 12.039062 -15.09375 11.335938 -14.234375 10.609375 -13.046875 C 9.890625 -11.859375 9.179688 -10.304688 8.484375 -8.390625 C 7.796875 -6.472656 7.15625 -4.113281 6.5625 -1.3125 C 6.457031 -0.832031 6.25 -0.476562 5.9375 -0.25 C 5.625 -0.03125 5.269531 0.078125 4.875 0.078125 C 4.394531 0.078125 3.988281 -0.0820312 3.65625 -0.40625 C 3.332031 -0.726562 3.171875 -1.128906 3.171875 -1.609375 L 3.171875 -30.09375 C 3.171875 -30.570312 3.332031 -30.972656 3.65625 -31.296875 C 3.988281 -31.617188 4.394531 -31.78125 4.875 -31.78125 C 5.351562 -31.78125 5.753906 -31.617188 6.078125 -31.296875 C 6.398438 -30.972656 6.5625 -30.570312 6.5625 -30.09375 L 6.5625 -11.703125 C 6.988281 -12.878906 7.476562 -13.960938 8.03125 -14.953125 C 8.582031 -15.941406 9.207031 -16.796875 9.90625 -17.515625 C 10.613281 -18.242188 11.382812 -18.8125 12.21875 -19.21875 C 13.050781 -19.625 13.960938 -19.828125 14.953125 -19.828125 C 15.460938 -19.828125 15.960938 -19.75 16.453125 -19.59375 C 16.953125 -19.4375 17.40625 -19.164062 17.8125 -18.78125 C 18.226562 -18.40625 18.554688 -17.882812 18.796875 -17.21875 C 19.035156 -16.5625 19.15625 -15.722656 19.15625 -14.703125 C 19.15625 -13.941406 19.097656 -13.203125 18.984375 -12.484375 C 18.867188 -11.765625 18.75 -11.035156 18.625 -10.296875 C 18.5 -9.566406 18.382812 -8.828125 18.28125 -8.078125 C 18.1875 -7.328125 18.140625 -6.554688 18.140625 -5.765625 C 18.140625 -5.171875 18.1875 -4.695312 18.28125 -4.34375 C 18.382812 -3.988281 18.515625 -3.710938 18.671875 -3.515625 C 18.828125 -3.316406 18.992188 -3.1875 19.171875 -3.125 C 19.359375 -3.070312 19.535156 -3.046875 19.703125 -3.046875 C 20.179688 -3.046875 20.644531 -3.257812 21.09375 -3.6875 C 21.550781 -4.113281 21.984375 -4.664062 22.390625 -5.34375 C 22.804688 -6.019531 23.1875 -6.757812 23.53125 -7.5625 C 23.882812 -8.363281 24.207031 -9.148438 24.5 -9.921875 C 24.582031 -10.171875 24.753906 -10.394531 25.015625 -10.59375 C 25.285156 -10.789062 25.617188 -10.890625 26.015625 -10.890625 C 26.492188 -10.890625 26.890625 -10.726562 27.203125 -10.40625 C 27.515625 -10.082031 27.671875 -9.691406 27.671875 -9.234375 C 27.671875 -8.984375 27.644531 -8.785156 27.59375 -8.640625 C 27.195312 -7.566406 26.710938 -6.5 26.140625 -5.4375 C 25.578125 -4.382812 24.9375 -3.441406 24.21875 -2.609375 C 23.5 -1.773438 22.707031 -1.09375 21.84375 -0.5625 C 20.976562 -0.0390625 20.050781 0.21875 19.0625 0.21875 Z M 19.0625 0.21875 "/></g></g></g><g fill="#0f3551" fill-opacity="1"><g transform="translate(87.809965, 158.427966)"><g><path d="M 9.359375 0.21875 C 8.265625 0.21875 7.328125 -0.00390625 6.546875 -0.453125 C 5.765625 -0.910156 5.128906 -1.515625 4.640625 -2.265625 C 4.148438 -3.015625 3.78125 -3.875 3.53125 -4.84375 C 3.289062 -5.820312 3.171875 -6.832031 3.171875 -7.875 C 3.171875 -9.40625 3.390625 -10.882812 3.828125 -12.3125 C 4.265625 -13.738281 4.894531 -15 5.71875 -16.09375 C 6.539062 -17.195312 7.535156 -18.082031 8.703125 -18.75 C 9.878906 -19.414062 11.1875 -19.75 12.625 -19.75 C 13.382812 -19.75 14.128906 -19.632812 14.859375 -19.40625 C 15.597656 -19.175781 16.265625 -18.835938 16.859375 -18.390625 C 17.453125 -17.941406 17.929688 -17.390625 18.296875 -16.734375 C 18.671875 -16.085938 18.859375 -15.34375 18.859375 -14.5 C 18.859375 -13.507812 18.769531 -12.503906 18.59375 -11.484375 C 18.425781 -10.460938 18.34375 -9.316406 18.34375 -8.046875 C 18.34375 -4.742188 19.132812 -3.09375 20.71875 -3.09375 C 21.113281 -3.09375 21.488281 -3.203125 21.84375 -3.421875 C 22.195312 -3.648438 22.550781 -4.03125 22.90625 -4.5625 C 23.257812 -5.101562 23.625 -5.796875 24 -6.640625 C 24.382812 -7.492188 24.816406 -8.554688 25.296875 -9.828125 C 25.410156 -10.054688 25.597656 -10.257812 25.859375 -10.4375 C 26.128906 -10.625 26.4375 -10.71875 26.78125 -10.71875 C 27.257812 -10.71875 27.660156 -10.554688 27.984375 -10.234375 C 28.304688 -9.910156 28.46875 -9.507812 28.46875 -9.03125 C 28.46875 -8.851562 28.441406 -8.679688 28.390625 -8.515625 C 27.316406 -5.691406 26.207031 -3.53125 25.0625 -2.03125 C 23.914062 -0.53125 22.46875 0.21875 20.71875 0.21875 C 19.28125 0.21875 18.203125 -0.09375 17.484375 -0.71875 C 16.765625 -1.34375 16.160156 -2.25 15.671875 -3.4375 C 15.273438 -2.78125 14.863281 -2.226562 14.4375 -1.78125 C 14.019531 -1.332031 13.570312 -0.957031 13.09375 -0.65625 C 12.613281 -0.363281 12.066406 -0.144531 11.453125 0 C 10.847656 0.144531 10.148438 0.21875 9.359375 0.21875 Z M 9.625 -2.96875 C 10.414062 -2.96875 11.117188 -3.265625 11.734375 -3.859375 C 12.359375 -4.453125 12.890625 -5.191406 13.328125 -6.078125 C 13.765625 -6.972656 14.128906 -7.925781 14.421875 -8.9375 C 14.722656 -9.957031 14.941406 -10.878906 15.078125 -11.703125 L 15.421875 -13.609375 C 15.453125 -13.804688 15.472656 -13.972656 15.484375 -14.109375 C 15.503906 -14.253906 15.515625 -14.351562 15.515625 -14.40625 C 15.515625 -14.46875 15.46875 -14.609375 15.375 -14.828125 C 15.289062 -15.054688 15.132812 -15.296875 14.90625 -15.546875 C 14.6875 -15.804688 14.382812 -16.035156 14 -16.234375 C 13.625 -16.429688 13.140625 -16.53125 12.546875 -16.53125 C 11.691406 -16.53125 10.890625 -16.296875 10.140625 -15.828125 C 9.398438 -15.359375 8.757812 -14.734375 8.21875 -13.953125 C 7.6875 -13.179688 7.265625 -12.265625 6.953125 -11.203125 C 6.640625 -10.148438 6.484375 -9.03125 6.484375 -7.84375 C 6.484375 -6.425781 6.742188 -5.257812 7.265625 -4.34375 C 7.785156 -3.425781 8.570312 -2.96875 9.625 -2.96875 Z M 9.625 -2.96875 "/></g></g></g><g fill="#0f3551" fill-opacity="1"><g transform="translate(109.929699, 158.427966)"><g><path d="M 19.0625 0.21875 C 16.1875 0.21875 14.75 -1.773438 14.75 -5.765625 C 14.75 -6.472656 14.796875 -7.242188 14.890625 -8.078125 C 14.992188 -8.910156 15.109375 -9.734375 15.234375 -10.546875 C 15.359375 -11.367188 15.476562 -12.144531 15.59375 -12.875 C 15.707031 -13.613281 15.765625 -14.222656 15.765625 -14.703125 C 15.765625 -15.859375 15.351562 -16.4375 14.53125 -16.4375 C 14 -16.4375 13.394531 -16.164062 12.71875 -15.625 C 12.039062 -15.09375 11.335938 -14.234375 10.609375 -13.046875 C 9.890625 -11.859375 9.179688 -10.304688 8.484375 -8.390625 C 7.796875 -6.472656 7.15625 -4.113281 6.5625 -1.3125 C 6.457031 -0.832031 6.25 -0.476562 5.9375 -0.25 C 5.625 -0.03125 5.269531 0.078125 4.875 0.078125 C 4.394531 0.078125 3.988281 -0.0820312 3.65625 -0.40625 C 3.332031 -0.726562 3.171875 -1.128906 3.171875 -1.609375 L 3.171875 -17.75 C 3.171875 -18.226562 3.332031 -18.628906 3.65625 -18.953125 C 3.988281 -19.285156 4.394531 -19.453125 4.875 -19.453125 C 5.351562 -19.453125 5.753906 -19.285156 6.078125 -18.953125 C 6.398438 -18.628906 6.5625 -18.226562 6.5625 -17.75 L 6.5625 -11.703125 C 6.988281 -12.878906 7.476562 -13.960938 8.03125 -14.953125 C 8.582031 -15.941406 9.207031 -16.796875 9.90625 -17.515625 C 10.613281 -18.242188 11.382812 -18.8125 12.21875 -19.21875 C 13.050781 -19.625 13.960938 -19.828125 14.953125 -19.828125 C 15.460938 -19.828125 15.960938 -19.75 16.453125 -19.59375 C 16.953125 -19.4375 17.40625 -19.164062 17.8125 -18.78125 C 18.226562 -18.40625 18.554688 -17.882812 18.796875 -17.21875 C 19.035156 -16.5625 19.15625 -15.722656 19.15625 -14.703125 C 19.15625 -13.941406 19.097656 -13.203125 18.984375 -12.484375 C 18.867188 -11.765625 18.75 -11.035156 18.625 -10.296875 C 18.5 -9.566406 18.382812 -8.828125 18.28125 -8.078125 C 18.1875 -7.328125 18.140625 -6.554688 18.140625 -5.765625 C 18.140625 -5.171875 18.1875 -4.695312 18.28125 -4.34375 C 18.382812 -3.988281 18.515625 -3.710938 18.671875 -3.515625 C 18.828125 -3.316406 18.992188 -3.1875 19.171875 -3.125 C 19.359375 -3.070312 19.535156 -3.046875 19.703125 -3.046875 C 20.179688 -3.046875 20.640625 -3.257812 21.078125 -3.6875 C 21.515625 -4.113281 21.9375 -4.664062 22.34375 -5.34375 C 22.757812 -6.019531 23.144531 -6.757812 23.5 -7.5625 C 23.851562 -8.363281 24.171875 -9.148438 24.453125 -9.921875 C 24.535156 -10.171875 24.71875 -10.394531 25 -10.59375 C 25.28125 -10.789062 25.617188 -10.890625 26.015625 -10.890625 C 26.492188 -10.890625 26.890625 -10.726562 27.203125 -10.40625 C 27.515625 -10.082031 27.671875 -9.691406 27.671875 -9.234375 C 27.671875 -8.984375 27.644531 -8.785156 27.59375 -8.640625 C 27.195312 -7.566406 26.710938 -6.5 26.140625 -5.4375 C 25.578125 -4.382812 24.9375 -3.441406 24.21875 -2.609375 C 23.5 -1.773438 22.707031 -1.09375 21.84375 -0.5625 C 20.976562 -0.0390625 20.050781 0.21875 19.0625 0.21875 Z M 19.0625 0.21875 "/></g></g></g><g fill="#0f3551" fill-opacity="1"><g transform="translate(131.244307, 158.427966)"><g><path d="M 11.40625 13.5625 C 9.738281 13.5625 8.394531 13.101562 7.375 12.1875 C 6.351562 11.269531 5.84375 10.046875 5.84375 8.515625 C 5.84375 7.410156 6.082031 6.40625 6.5625 5.5 C 7.039062 4.601562 7.71875 3.78125 8.59375 3.03125 C 9.476562 2.28125 10.519531 1.570312 11.71875 0.90625 C 12.914062 0.25 14.222656 -0.40625 15.640625 -1.0625 L 15.640625 -4.578125 C 14.785156 -3.273438 13.867188 -2.296875 12.890625 -1.640625 C 11.921875 -0.992188 10.675781 -0.671875 9.15625 -0.671875 C 7.375 -0.671875 5.894531 -1.28125 4.71875 -2.5 C 3.550781 -3.71875 2.96875 -5.609375 2.96875 -8.171875 C 2.96875 -9.785156 3.242188 -11.285156 3.796875 -12.671875 C 4.347656 -14.054688 5.070312 -15.253906 5.96875 -16.265625 C 6.875 -17.285156 7.925781 -18.082031 9.125 -18.65625 C 10.332031 -19.238281 11.597656 -19.53125 12.921875 -19.53125 C 14.867188 -19.53125 16.40625 -19.09375 17.53125 -18.21875 C 18.664062 -17.34375 19.234375 -16.054688 19.234375 -14.359375 C 19.234375 -13.347656 19.21875 -12.476562 19.1875 -11.75 C 19.164062 -11.03125 19.144531 -10.367188 19.125 -9.765625 C 19.113281 -9.160156 19.09375 -8.582031 19.0625 -8.03125 C 19.039062 -7.476562 19.03125 -6.878906 19.03125 -6.234375 L 19.03125 -2.921875 C 20.519531 -3.941406 21.6875 -5.035156 22.53125 -6.203125 C 23.382812 -7.378906 24.09375 -8.71875 24.65625 -10.21875 C 24.75 -10.4375 24.925781 -10.648438 25.1875 -10.859375 C 25.457031 -11.078125 25.789062 -11.1875 26.1875 -11.1875 C 26.664062 -11.1875 27.066406 -11.023438 27.390625 -10.703125 C 27.710938 -10.378906 27.875 -9.972656 27.875 -9.484375 C 27.875 -9.347656 27.859375 -9.222656 27.828125 -9.109375 C 27.804688 -8.992188 27.78125 -8.910156 27.75 -8.859375 C 26.957031 -6.734375 25.867188 -4.878906 24.484375 -3.296875 C 23.109375 -1.722656 21.289062 -0.285156 19.03125 1.015625 C 19.03125 1.460938 19.035156 1.929688 19.046875 2.421875 C 19.054688 2.921875 19.0625 3.425781 19.0625 3.9375 C 19.0625 5.519531 18.859375 6.90625 18.453125 8.09375 C 18.046875 9.28125 17.492188 10.28125 16.796875 11.09375 C 16.109375 11.914062 15.296875 12.53125 14.359375 12.9375 C 13.429688 13.351562 12.445312 13.5625 11.40625 13.5625 Z M 11.3125 10.59375 C 12.132812 10.59375 12.820312 10.378906 13.375 9.953125 C 13.925781 9.535156 14.367188 8.957031 14.703125 8.21875 C 15.046875 7.488281 15.285156 6.640625 15.421875 5.671875 C 15.566406 4.710938 15.640625 3.679688 15.640625 2.578125 C 15.046875 2.867188 14.375 3.203125 13.625 3.578125 C 12.875 3.960938 12.171875 4.394531 11.515625 4.875 C 10.867188 5.351562 10.320312 5.878906 9.875 6.453125 C 9.425781 7.035156 9.203125 7.664062 9.203125 8.34375 C 9.203125 8.914062 9.347656 9.429688 9.640625 9.890625 C 9.929688 10.359375 10.488281 10.59375 11.3125 10.59375 Z M 9.359375 -3.859375 C 10.128906 -3.859375 10.820312 -4.054688 11.4375 -4.453125 C 12.0625 -4.847656 12.613281 -5.351562 13.09375 -5.96875 C 13.570312 -6.59375 13.976562 -7.285156 14.3125 -8.046875 C 14.65625 -8.816406 14.941406 -9.566406 15.171875 -10.296875 C 15.398438 -11.035156 15.566406 -11.710938 15.671875 -12.328125 C 15.785156 -12.953125 15.84375 -13.429688 15.84375 -13.765625 C 15.84375 -14.421875 15.617188 -15.015625 15.171875 -15.546875 C 14.722656 -16.085938 14.015625 -16.359375 13.046875 -16.359375 C 12.117188 -16.359375 11.242188 -16.125 10.421875 -15.65625 C 9.609375 -15.1875 8.894531 -14.5625 8.28125 -13.78125 C 7.675781 -13.007812 7.1875 -12.097656 6.8125 -11.046875 C 6.445312 -10.003906 6.265625 -8.921875 6.265625 -7.796875 C 6.265625 -6.578125 6.546875 -5.613281 7.109375 -4.90625 C 7.679688 -4.207031 8.429688 -3.859375 9.359375 -3.859375 Z M 9.359375 -3.859375 "/></g></g></g><g fill="#0f3551" fill-opacity="1"><g transform="translate(152.770791, 158.427966)"><g><path d="M 13.015625 0.21875 C 11.429688 0.21875 10.03125 -0.0234375 8.8125 -0.515625 C 7.59375 -1.015625 6.566406 -1.695312 5.734375 -2.5625 C 4.898438 -3.425781 4.265625 -4.453125 3.828125 -5.640625 C 3.390625 -6.828125 3.171875 -8.109375 3.171875 -9.484375 C 3.171875 -10.867188 3.375 -12.175781 3.78125 -13.40625 C 4.195312 -14.632812 4.789062 -15.710938 5.5625 -16.640625 C 6.34375 -17.578125 7.289062 -18.320312 8.40625 -18.875 C 9.519531 -19.425781 10.769531 -19.703125 12.15625 -19.703125 C 14.019531 -19.703125 15.425781 -19.234375 16.375 -18.296875 C 17.320312 -17.367188 17.796875 -16.269531 17.796875 -15 C 17.796875 -12.570312 16.851562 -10.726562 14.96875 -9.46875 C 13.09375 -8.207031 10.40625 -7.523438 6.90625 -7.421875 C 7.132812 -5.972656 7.796875 -4.898438 8.890625 -4.203125 C 9.992188 -3.515625 11.351562 -3.171875 12.96875 -3.171875 C 15.257812 -3.171875 17.179688 -3.707031 18.734375 -4.78125 C 20.285156 -5.863281 21.515625 -7.601562 22.421875 -10 C 22.503906 -10.25 22.691406 -10.472656 22.984375 -10.671875 C 23.285156 -10.867188 23.601562 -10.96875 23.9375 -10.96875 C 24.445312 -10.96875 24.847656 -10.765625 25.140625 -10.359375 C 25.441406 -9.953125 25.59375 -9.550781 25.59375 -9.15625 C 25.59375 -9.007812 25.566406 -8.851562 25.515625 -8.6875 C 25.035156 -7.46875 24.445312 -6.320312 23.75 -5.25 C 23.0625 -4.175781 22.222656 -3.238281 21.234375 -2.4375 C 20.242188 -1.632812 19.066406 -0.988281 17.703125 -0.5 C 16.347656 -0.0195312 14.785156 0.21875 13.015625 0.21875 Z M 6.6875 -10.671875 C 9.238281 -10.671875 11.160156 -11.070312 12.453125 -11.875 C 13.753906 -12.6875 14.40625 -13.65625 14.40625 -14.78125 C 14.40625 -15.351562 14.226562 -15.84375 13.875 -16.25 C 13.519531 -16.65625 12.945312 -16.859375 12.15625 -16.859375 C 11.34375 -16.859375 10.625 -16.695312 10 -16.375 C 9.375 -16.050781 8.84375 -15.609375 8.40625 -15.046875 C 7.96875 -14.484375 7.597656 -13.828125 7.296875 -13.078125 C 7.003906 -12.328125 6.800781 -11.523438 6.6875 -10.671875 Z M 6.6875 -10.671875 "/></g></g></g><g fill="#0f3551" fill-opacity="1"><g transform="translate(172.010154, 158.427966)"><g/></g></g><g fill="#0f3551" fill-opacity="1"><g transform="translate(181.120772, 158.427966)"><g/></g></g><g fill="#0f3551" fill-opacity="1"><g transform="translate(190.23139, 158.427966)"><g/></g></g><g fill="#0f3551" fill-opacity="1"><g transform="translate(199.349992, 158.427966)"><g><path d="M 13.015625 0.21875 C 11.429688 0.21875 10.03125 -0.0234375 8.8125 -0.515625 C 7.59375 -1.015625 6.566406 -1.695312 5.734375 -2.5625 C 4.898438 -3.425781 4.265625 -4.453125 3.828125 -5.640625 C 3.390625 -6.828125 3.171875 -8.109375 3.171875 -9.484375 C 3.171875 -10.867188 3.375 -12.175781 3.78125 -13.40625 C 4.195312 -14.632812 4.789062 -15.710938 5.5625 -16.640625 C 6.34375 -17.578125 7.289062 -18.320312 8.40625 -18.875 C 9.519531 -19.425781 10.769531 -19.703125 12.15625 -19.703125 C 14.019531 -19.703125 15.425781 -19.234375 16.375 -18.296875 C 17.320312 -17.367188 17.796875 -16.269531 17.796875 -15 C 17.796875 -12.570312 16.851562 -10.726562 14.96875 -9.46875 C 13.09375 -8.207031 10.40625 -7.523438 6.90625 -7.421875 C 7.132812 -5.972656 7.796875 -4.898438 8.890625 -4.203125 C 9.992188 -3.515625 11.351562 -3.171875 12.96875 -3.171875 C 15.257812 -3.171875 17.179688 -3.707031 18.734375 -4.78125 C 20.285156 -5.863281 21.515625 -7.601562 22.421875 -10 C 22.503906 -10.25 22.691406 -10.472656 22.984375 -10.671875 C 23.285156 -10.867188 23.601562 -10.96875 23.9375 -10.96875 C 24.445312 -10.96875 24.847656 -10.765625 25.140625 -10.359375 C 25.441406 -9.953125 25.59375 -9.550781 25.59375 -9.15625 C 25.59375 -9.007812 25.566406 -8.851562 25.515625 -8.6875 C 25.035156 -7.46875 24.445312 -6.320312 23.75 -5.25 C 23.0625 -4.175781 22.222656 -3.238281 21.234375 -2.4375 C 20.242188 -1.632812 19.066406 -0.988281 17.703125 -0.5 C 16.347656 -0.0195312 14.785156 0.21875 13.015625 0.21875 Z M 6.6875 -10.671875 C 9.238281 -10.671875 11.160156 -11.070312 12.453125 -11.875 C 13.753906 -12.6875 14.40625 -13.65625 14.40625 -14.78125 C 14.40625 -15.351562 14.226562 -15.84375 13.875 -16.25 C 13.519531 -16.65625 12.945312 -16.859375 12.15625 -16.859375 C 11.34375 -16.859375 10.625 -16.695312 10 -16.375 C 9.375 -16.050781 8.84375 -15.609375 8.40625 -15.046875 C 7.96875 -14.484375 7.597656 -13.828125 7.296875 -13.078125 C 7.003906 -12.328125 6.800781 -11.523438 6.6875 -10.671875 Z M 12.15625 -22.75 C 11.675781 -22.75 11.300781 -22.890625 11.03125 -23.171875 C 10.769531 -23.460938 10.640625 -23.832031 10.640625 -24.28125 C 10.640625 -24.625 10.738281 -24.9375 10.9375 -25.21875 L 13.640625 -28.90625 C 13.984375 -29.40625 14.453125 -29.65625 15.046875 -29.65625 C 15.523438 -29.65625 15.894531 -29.5 16.15625 -29.1875 C 16.425781 -28.882812 16.5625 -28.519531 16.5625 -28.09375 C 16.5625 -27.757812 16.460938 -27.445312 16.265625 -27.15625 L 13.515625 -23.46875 C 13.203125 -22.988281 12.75 -22.75 12.15625 -22.75 Z M 12.15625 -22.75 "/></g></g></g><g fill="#0f3551" fill-opacity="1"><g transform="translate(218.58823, 158.427966)"><g><path d="M 12.96875 0.21875 C 11.351562 0.21875 9.9375 -0.0351562 8.71875 -0.546875 C 7.507812 -1.054688 6.492188 -1.753906 5.671875 -2.640625 C 4.859375 -3.535156 4.238281 -4.578125 3.8125 -5.765625 C 3.382812 -6.953125 3.171875 -8.222656 3.171875 -9.578125 C 3.171875 -10.960938 3.390625 -12.269531 3.828125 -13.5 C 4.265625 -14.726562 4.863281 -15.785156 5.625 -16.671875 C 6.394531 -17.566406 7.316406 -18.273438 8.390625 -18.796875 C 9.460938 -19.316406 10.632812 -19.578125 11.90625 -19.578125 C 13.6875 -19.578125 15.09375 -19.097656 16.125 -18.140625 C 17.15625 -17.179688 17.671875 -15.96875 17.671875 -14.5 C 17.671875 -13.414062 17.429688 -12.492188 16.953125 -11.734375 C 16.472656 -10.972656 15.9375 -10.59375 15.34375 -10.59375 C 14.914062 -10.59375 14.523438 -10.753906 14.171875 -11.078125 C 13.816406 -11.398438 13.640625 -11.800781 13.640625 -12.28125 C 13.640625 -12.507812 13.675781 -12.691406 13.75 -12.828125 C 13.820312 -12.972656 13.890625 -13.113281 13.953125 -13.25 C 14.023438 -13.394531 14.097656 -13.5625 14.171875 -13.75 C 14.242188 -13.9375 14.28125 -14.195312 14.28125 -14.53125 C 14.28125 -15.1875 14.046875 -15.703125 13.578125 -16.078125 C 13.109375 -16.460938 12.46875 -16.65625 11.65625 -16.65625 C 10.832031 -16.65625 10.101562 -16.441406 9.46875 -16.015625 C 8.832031 -15.585938 8.300781 -15.035156 7.875 -14.359375 C 7.457031 -13.679688 7.132812 -12.929688 6.90625 -12.109375 C 6.675781 -11.296875 6.5625 -10.492188 6.5625 -9.703125 C 6.5625 -8.660156 6.722656 -7.726562 7.046875 -6.90625 C 7.378906 -6.082031 7.828125 -5.394531 8.390625 -4.84375 C 8.953125 -4.300781 9.628906 -3.882812 10.421875 -3.59375 C 11.210938 -3.3125 12.0625 -3.171875 12.96875 -3.171875 C 15.363281 -3.171875 17.359375 -3.753906 18.953125 -4.921875 C 20.554688 -6.097656 21.765625 -7.765625 22.578125 -9.921875 C 22.671875 -10.171875 22.859375 -10.394531 23.140625 -10.59375 C 23.421875 -10.789062 23.742188 -10.890625 24.109375 -10.890625 C 24.585938 -10.890625 24.988281 -10.726562 25.3125 -10.40625 C 25.644531 -10.082031 25.8125 -9.679688 25.8125 -9.203125 C 25.8125 -9.140625 25.796875 -9.03125 25.765625 -8.875 C 25.734375 -8.71875 25.703125 -8.613281 25.671875 -8.5625 C 25.191406 -7.289062 24.554688 -6.125 23.765625 -5.0625 C 22.972656 -4 22.039062 -3.070312 20.96875 -2.28125 C 19.894531 -1.5 18.6875 -0.882812 17.34375 -0.4375 C 16.007812 0 14.550781 0.21875 12.96875 0.21875 Z M 12.96875 0.21875 "/></g></g></g><g fill="#0f3551" fill-opacity="1"><g transform="translate(238.045301, 158.427966)"><g/></g></g><g fill="#0f3551" fill-opacity="1"><g transform="translate(247.155919, 158.427966)"><g/></g></g><g fill="#0f3551" fill-opacity="1"><g transform="translate(256.266537, 158.427966)"><g/></g></g><g fill="#0f3551" fill-opacity="1"><g transform="translate(265.377155, 158.427966)"><g/></g></g><g fill="#0f3551" fill-opacity="1"><g transform="translate(274.487773, 158.427966)"><g/></g></g><g fill="#0f3551" fill-opacity="1"><g transform="translate(283.59839, 158.427966)"><g/></g></g><g fill="#0f3551" fill-opacity="1"><g transform="translate(292.713269, 158.427966)"><g><path d="M 16.234375 0.25 C 14.617188 0.25 13.394531 -0.226562 12.5625 -1.1875 C 11.726562 -2.144531 11.3125 -3.457031 11.3125 -5.125 C 11.3125 -6.0625 11.429688 -6.898438 11.671875 -7.640625 C 11.910156 -8.390625 12.171875 -9.101562 12.453125 -9.78125 C 12.734375 -10.46875 12.992188 -11.148438 13.234375 -11.828125 C 13.484375 -12.503906 13.609375 -13.238281 13.609375 -14.03125 C 13.609375 -14.507812 13.457031 -14.898438 13.15625 -15.203125 C 12.863281 -15.515625 12.5 -15.773438 12.0625 -15.984375 C 11.625 -16.203125 11.140625 -16.375 10.609375 -16.5 C 10.085938 -16.632812 9.617188 -16.769531 9.203125 -16.90625 C 8.972656 -15.800781 8.625 -14.5625 8.15625 -13.1875 C 7.6875 -11.820312 7.085938 -10.335938 6.359375 -8.734375 C 6.210938 -8.453125 6 -8.1875 5.71875 -7.9375 C 5.4375 -7.695312 5.113281 -7.578125 4.75 -7.578125 C 4.269531 -7.578125 3.863281 -7.75 3.53125 -8.09375 C 3.207031 -8.4375 3.046875 -8.832031 3.046875 -9.28125 C 3.046875 -9.332031 3.050781 -9.425781 3.0625 -9.5625 C 3.082031 -9.707031 3.117188 -9.828125 3.171875 -9.921875 L 3.515625 -10.640625 C 3.773438 -11.203125 4.035156 -11.804688 4.296875 -12.453125 C 4.566406 -13.109375 4.8125 -13.765625 5.03125 -14.421875 C 5.257812 -15.085938 5.453125 -15.726562 5.609375 -16.34375 C 5.765625 -16.96875 5.882812 -17.535156 5.96875 -18.046875 C 5.570312 -18.359375 5.320312 -18.691406 5.21875 -19.046875 C 5.125 -19.398438 5.078125 -19.773438 5.078125 -20.171875 C 5.078125 -20.679688 5.253906 -21.132812 5.609375 -21.53125 C 5.960938 -21.925781 6.476562 -22.125 7.15625 -22.125 C 7.550781 -22.125 7.984375 -21.988281 8.453125 -21.71875 C 8.921875 -21.445312 9.222656 -20.898438 9.359375 -20.078125 C 10.210938 -19.828125 11.082031 -19.582031 11.96875 -19.34375 C 12.863281 -19.101562 13.679688 -18.785156 14.421875 -18.390625 C 15.171875 -17.992188 15.785156 -17.457031 16.265625 -16.78125 C 16.753906 -16.101562 17 -15.1875 17 -14.03125 C 17 -13.257812 16.875 -12.515625 16.625 -11.796875 C 16.382812 -11.078125 16.125 -10.363281 15.84375 -9.65625 C 15.5625 -8.957031 15.300781 -8.238281 15.0625 -7.5 C 14.820312 -6.769531 14.703125 -6.007812 14.703125 -5.21875 C 14.703125 -4.675781 14.859375 -4.175781 15.171875 -3.71875 C 15.484375 -3.269531 15.960938 -3.046875 16.609375 -3.046875 C 17.203125 -3.046875 17.757812 -3.242188 18.28125 -3.640625 C 18.800781 -4.035156 19.28125 -4.546875 19.71875 -5.171875 C 20.15625 -5.796875 20.550781 -6.476562 20.90625 -7.21875 C 21.257812 -7.96875 21.566406 -8.695312 21.828125 -9.40625 C 21.960938 -9.800781 22.164062 -10.15625 22.4375 -10.46875 C 22.707031 -10.78125 23.097656 -10.9375 23.609375 -10.9375 C 24.085938 -10.9375 24.488281 -10.769531 24.8125 -10.4375 C 25.132812 -10.113281 25.296875 -9.710938 25.296875 -9.234375 C 25.296875 -9.179688 25.285156 -9.085938 25.265625 -8.953125 C 25.253906 -8.828125 25.238281 -8.738281 25.21875 -8.6875 L 24.953125 -8.015625 C 24.585938 -7.046875 24.128906 -6.070312 23.578125 -5.09375 C 23.023438 -4.125 22.390625 -3.242188 21.671875 -2.453125 C 20.953125 -1.660156 20.132812 -1.007812 19.21875 -0.5 C 18.300781 0 17.304688 0.25 16.234375 0.25 Z M 16.234375 0.25 "/></g></g></g><g fill="#0f3551" fill-opacity="1"><g transform="translate(311.654876, 158.427966)"><g><path d="M 12.96875 0.21875 C 11.351562 0.21875 9.9375 -0.0351562 8.71875 -0.546875 C 7.507812 -1.054688 6.492188 -1.753906 5.671875 -2.640625 C 4.859375 -3.535156 4.238281 -4.578125 3.8125 -5.765625 C 3.382812 -6.953125 3.171875 -8.222656 3.171875 -9.578125 C 3.171875 -10.960938 3.390625 -12.269531 3.828125 -13.5 C 4.265625 -14.726562 4.863281 -15.785156 5.625 -16.671875 C 6.394531 -17.566406 7.316406 -18.273438 8.390625 -18.796875 C 9.460938 -19.316406 10.632812 -19.578125 11.90625 -19.578125 C 13.6875 -19.578125 15.09375 -19.097656 16.125 -18.140625 C 17.15625 -17.179688 17.671875 -15.96875 17.671875 -14.5 C 17.671875 -13.414062 17.429688 -12.492188 16.953125 -11.734375 C 16.472656 -10.972656 15.9375 -10.59375 15.34375 -10.59375 C 14.914062 -10.59375 14.523438 -10.753906 14.171875 -11.078125 C 13.816406 -11.398438 13.640625 -11.800781 13.640625 -12.28125 C 13.640625 -12.507812 13.675781 -12.691406 13.75 -12.828125 C 13.820312 -12.972656 13.890625 -13.113281 13.953125 -13.25 C 14.023438 -13.394531 14.097656 -13.5625 14.171875 -13.75 C 14.242188 -13.9375 14.28125 -14.195312 14.28125 -14.53125 C 14.28125 -15.1875 14.046875 -15.703125 13.578125 -16.078125 C 13.109375 -16.460938 12.46875 -16.65625 11.65625 -16.65625 C 10.832031 -16.65625 10.101562 -16.441406 9.46875 -16.015625 C 8.832031 -15.585938 8.300781 -15.035156 7.875 -14.359375 C 7.457031 -13.679688 7.132812 -12.929688 6.90625 -12.109375 C 6.675781 -11.296875 6.5625 -10.492188 6.5625 -9.703125 C 6.5625 -8.660156 6.722656 -7.726562 7.046875 -6.90625 C 7.378906 -6.082031 7.828125 -5.394531 8.390625 -4.84375 C 8.953125 -4.300781 9.628906 -3.882812 10.421875 -3.59375 C 11.210938 -3.3125 12.0625 -3.171875 12.96875 -3.171875 C 15.363281 -3.171875 17.359375 -3.753906 18.953125 -4.921875 C 20.554688 -6.097656 21.765625 -7.765625 22.578125 -9.921875 C 22.671875 -10.171875 22.859375 -10.394531 23.140625 -10.59375 C 23.421875 -10.789062 23.742188 -10.890625 24.109375 -10.890625 C 24.585938 -10.890625 24.988281 -10.726562 25.3125 -10.40625 C 25.644531 -10.082031 25.8125 -9.679688 25.8125 -9.203125 C 25.8125 -9.140625 25.796875 -9.03125 25.765625 -8.875 C 25.734375 -8.71875 25.703125 -8.613281 25.671875 -8.5625 C 25.191406 -7.289062 24.554688 -6.125 23.765625 -5.0625 C 22.972656 -4 22.039062 -3.070312 20.96875 -2.28125 C 19.894531 -1.5 18.6875 -0.882812 17.34375 -0.4375 C 16.007812 0 14.550781 0.21875 12.96875 0.21875 Z M 12.96875 0.21875 "/></g></g></g><g fill="#0f3551" fill-opacity="1"><g transform="translate(331.10499, 158.427966)"><g><path d="M 13.015625 0.21875 C 11.429688 0.21875 10.03125 -0.0234375 8.8125 -0.515625 C 7.59375 -1.015625 6.566406 -1.695312 5.734375 -2.5625 C 4.898438 -3.425781 4.265625 -4.453125 3.828125 -5.640625 C 3.390625 -6.828125 3.171875 -8.109375 3.171875 -9.484375 C 3.171875 -10.867188 3.375 -12.175781 3.78125 -13.40625 C 4.195312 -14.632812 4.789062 -15.710938 5.5625 -16.640625 C 6.34375 -17.578125 7.289062 -18.320312 8.40625 -18.875 C 9.519531 -19.425781 10.769531 -19.703125 12.15625 -19.703125 C 14.019531 -19.703125 15.425781 -19.234375 16.375 -18.296875 C 17.320312 -17.367188 17.796875 -16.269531 17.796875 -15 C 17.796875 -12.570312 16.851562 -10.726562 14.96875 -9.46875 C 13.09375 -8.207031 10.40625 -7.523438 6.90625 -7.421875 C 7.132812 -5.972656 7.796875 -4.898438 8.890625 -4.203125 C 9.992188 -3.515625 11.351562 -3.171875 12.96875 -3.171875 C 15.257812 -3.171875 17.179688 -3.707031 18.734375 -4.78125 C 20.285156 -5.863281 21.515625 -7.601562 22.421875 -10 C 22.503906 -10.25 22.691406 -10.472656 22.984375 -10.671875 C 23.285156 -10.867188 23.601562 -10.96875 23.9375 -10.96875 C 24.445312 -10.96875 24.847656 -10.765625 25.140625 -10.359375 C 25.441406 -9.953125 25.59375 -9.550781 25.59375 -9.15625 C 25.59375 -9.007812 25.566406 -8.851562 25.515625 -8.6875 C 25.035156 -7.46875 24.445312 -6.320312 23.75 -5.25 C 23.0625 -4.175781 22.222656 -3.238281 21.234375 -2.4375 C 20.242188 -1.632812 19.066406 -0.988281 17.703125 -0.5 C 16.347656 -0.0195312 14.785156 0.21875 13.015625 0.21875 Z M 6.6875 -10.671875 C 9.238281 -10.671875 11.160156 -11.070312 12.453125 -11.875 C 13.753906 -12.6875 14.40625 -13.65625 14.40625 -14.78125 C 14.40625 -15.351562 14.226562 -15.84375 13.875 -16.25 C 13.519531 -16.65625 12.945312 -16.859375 12.15625 -16.859375 C 11.34375 -16.859375 10.625 -16.695312 10 -16.375 C 9.375 -16.050781 8.84375 -15.609375 8.40625 -15.046875 C 7.96875 -14.484375 7.597656 -13.828125 7.296875 -13.078125 C 7.003906 -12.328125 6.800781 -11.523438 6.6875 -10.671875 Z M 6.6875 -10.671875 "/></g></g></g><g clip-path="url(#b1aef5d44e)"><g clip-path="url(#c14ccbaafa)"><path fill="#ca5a47" d="M 185.367188 144.335938 L 194.03125 144.335938 L 194.03125 153 L 185.367188 153 Z M 185.367188 144.335938 " fill-opacity="1" fill-rule="nonzero"/></g></g><g fill="#0f3551" fill-opacity="1"><g transform="translate(54.958916, 173.181812)"><g><path d="M 4.171875 0.125 C 3.398438 0.125 2.695312 -0.0507812 2.0625 -0.40625 C 1.425781 -0.757812 0.988281 -1.21875 0.75 -1.78125 C 0.707031 -1.882812 0.6875 -1.96875 0.6875 -2.03125 C 0.6875 -2.144531 0.726562 -2.25 0.8125 -2.34375 C 0.90625 -2.4375 1.023438 -2.5 1.171875 -2.53125 C 1.203125 -2.539062 1.242188 -2.546875 1.296875 -2.546875 C 1.421875 -2.546875 1.539062 -2.503906 1.65625 -2.421875 C 1.78125 -2.347656 1.867188 -2.25 1.921875 -2.125 C 2.066406 -1.8125 2.347656 -1.546875 2.765625 -1.328125 C 3.191406 -1.117188 3.660156 -1.015625 4.171875 -1.015625 C 4.773438 -1.015625 5.285156 -1.148438 5.703125 -1.421875 C 6.117188 -1.703125 6.328125 -2.082031 6.328125 -2.5625 C 6.328125 -3.007812 6.148438 -3.394531 5.796875 -3.71875 C 5.441406 -4.050781 4.90625 -4.25 4.1875 -4.3125 C 3.195312 -4.414062 2.414062 -4.707031 1.84375 -5.1875 C 1.28125 -5.675781 1 -6.285156 1 -7.015625 C 1 -7.523438 1.144531 -7.960938 1.4375 -8.328125 C 1.726562 -8.703125 2.125 -8.988281 2.625 -9.1875 C 3.132812 -9.382812 3.707031 -9.484375 4.34375 -9.484375 C 5.03125 -9.484375 5.609375 -9.34375 6.078125 -9.0625 C 6.554688 -8.78125 6.957031 -8.378906 7.28125 -7.859375 C 7.375 -7.703125 7.421875 -7.554688 7.421875 -7.421875 C 7.421875 -7.242188 7.34375 -7.101562 7.1875 -7 C 7.101562 -6.9375 7 -6.90625 6.875 -6.90625 C 6.757812 -6.90625 6.648438 -6.9375 6.546875 -7 C 6.441406 -7.0625 6.359375 -7.144531 6.296875 -7.25 C 6.078125 -7.601562 5.804688 -7.875 5.484375 -8.0625 C 5.160156 -8.257812 4.753906 -8.359375 4.265625 -8.359375 C 3.648438 -8.359375 3.15625 -8.238281 2.78125 -8 C 2.40625 -7.757812 2.21875 -7.414062 2.21875 -6.96875 C 2.21875 -6.550781 2.382812 -6.203125 2.71875 -5.921875 C 3.0625 -5.648438 3.664062 -5.46875 4.53125 -5.375 C 5.488281 -5.28125 6.226562 -4.988281 6.75 -4.5 C 7.28125 -4.019531 7.546875 -3.382812 7.546875 -2.59375 C 7.546875 -2.019531 7.390625 -1.523438 7.078125 -1.109375 C 6.765625 -0.691406 6.347656 -0.378906 5.828125 -0.171875 C 5.316406 0.0234375 4.765625 0.125 4.171875 0.125 Z M 4.171875 0.125 "/></g></g></g><g fill="#0f3551" fill-opacity="1"><g transform="translate(63.214935, 173.181812)"><g><path d="M 4.0625 0.046875 C 3.414062 0.046875 2.835938 -0.09375 2.328125 -0.375 C 1.828125 -0.65625 1.4375 -1.046875 1.15625 -1.546875 C 0.882812 -2.054688 0.75 -2.632812 0.75 -3.28125 C 0.75 -3.925781 0.882812 -4.5 1.15625 -5 C 1.4375 -5.507812 1.828125 -5.90625 2.328125 -6.1875 C 2.835938 -6.46875 3.414062 -6.609375 4.0625 -6.609375 C 4.6875 -6.609375 5.25 -6.46875 5.75 -6.1875 C 6.25 -5.90625 6.640625 -5.507812 6.921875 -5 C 7.210938 -4.5 7.359375 -3.925781 7.359375 -3.28125 C 7.359375 -2.632812 7.21875 -2.054688 6.9375 -1.546875 C 6.65625 -1.046875 6.265625 -0.65625 5.765625 -0.375 C 5.265625 -0.09375 4.695312 0.046875 4.0625 0.046875 Z M 4.0625 -1.03125 C 4.46875 -1.03125 4.832031 -1.125 5.15625 -1.3125 C 5.476562 -1.507812 5.726562 -1.773438 5.90625 -2.109375 C 6.09375 -2.453125 6.1875 -2.84375 6.1875 -3.28125 C 6.1875 -3.707031 6.09375 -4.09375 5.90625 -4.4375 C 5.726562 -4.78125 5.476562 -5.046875 5.15625 -5.234375 C 4.832031 -5.429688 4.46875 -5.53125 4.0625 -5.53125 C 3.644531 -5.53125 3.273438 -5.429688 2.953125 -5.234375 C 2.628906 -5.046875 2.375 -4.78125 2.1875 -4.4375 C 2.007812 -4.09375 1.921875 -3.707031 1.921875 -3.28125 C 1.921875 -2.84375 2.007812 -2.453125 2.1875 -2.109375 C 2.375 -1.773438 2.628906 -1.507812 2.953125 -1.3125 C 3.273438 -1.125 3.644531 -1.03125 4.0625 -1.03125 Z M 4.0625 -1.03125 "/></g></g></g><g fill="#0f3551" fill-opacity="1"><g transform="translate(71.314948, 173.181812)"><g><path d="M 4.375 -6.609375 C 4.988281 -6.609375 5.550781 -6.460938 6.0625 -6.171875 C 6.570312 -5.878906 6.96875 -5.476562 7.25 -4.96875 C 7.539062 -4.46875 7.6875 -3.90625 7.6875 -3.28125 C 7.6875 -2.65625 7.550781 -2.085938 7.28125 -1.578125 C 7.019531 -1.066406 6.65625 -0.664062 6.1875 -0.375 C 5.71875 -0.09375 5.195312 0.046875 4.625 0.046875 C 4.15625 0.046875 3.71875 -0.046875 3.3125 -0.234375 C 2.914062 -0.429688 2.578125 -0.703125 2.296875 -1.046875 L 2.296875 2.203125 C 2.296875 2.378906 2.238281 2.523438 2.125 2.640625 C 2.019531 2.753906 1.875 2.8125 1.6875 2.8125 C 1.507812 2.8125 1.363281 2.753906 1.25 2.640625 C 1.132812 2.523438 1.078125 2.378906 1.078125 2.203125 L 1.078125 -3.28125 C 1.078125 -3.90625 1.222656 -4.46875 1.515625 -4.96875 C 1.804688 -5.476562 2.203125 -5.878906 2.703125 -6.171875 C 3.203125 -6.460938 3.757812 -6.609375 4.375 -6.609375 Z M 4.375 -1.03125 C 4.78125 -1.03125 5.144531 -1.128906 5.46875 -1.328125 C 5.789062 -1.523438 6.046875 -1.789062 6.234375 -2.125 C 6.421875 -2.46875 6.515625 -2.851562 6.515625 -3.28125 C 6.515625 -3.695312 6.421875 -4.078125 6.234375 -4.421875 C 6.046875 -4.765625 5.789062 -5.035156 5.46875 -5.234375 C 5.144531 -5.429688 4.78125 -5.53125 4.375 -5.53125 C 3.976562 -5.53125 3.617188 -5.429688 3.296875 -5.234375 C 2.972656 -5.035156 2.71875 -4.765625 2.53125 -4.421875 C 2.34375 -4.078125 2.25 -3.695312 2.25 -3.28125 C 2.25 -2.851562 2.34375 -2.46875 2.53125 -2.125 C 2.71875 -1.789062 2.972656 -1.523438 3.296875 -1.328125 C 3.617188 -1.128906 3.976562 -1.03125 4.375 -1.03125 Z M 4.375 -1.03125 "/></g></g></g><g fill="#0f3551" fill-opacity="1"><g transform="translate(79.75096, 173.181812)"><g><path d="M 4.34375 -6.625 C 4.894531 -6.625 5.390625 -6.503906 5.828125 -6.265625 C 6.265625 -6.023438 6.609375 -5.675781 6.859375 -5.21875 C 7.109375 -4.757812 7.234375 -4.203125 7.234375 -3.546875 L 7.234375 -0.59375 C 7.234375 -0.425781 7.175781 -0.28125 7.0625 -0.15625 C 6.945312 -0.0390625 6.800781 0.015625 6.625 0.015625 C 6.445312 0.015625 6.300781 -0.0390625 6.1875 -0.15625 C 6.070312 -0.28125 6.015625 -0.425781 6.015625 -0.59375 L 6.015625 -3.546875 C 6.015625 -4.203125 5.835938 -4.691406 5.484375 -5.015625 C 5.140625 -5.347656 4.679688 -5.515625 4.109375 -5.515625 C 3.765625 -5.515625 3.453125 -5.445312 3.171875 -5.3125 C 2.898438 -5.175781 2.6875 -4.992188 2.53125 -4.765625 C 2.375 -4.535156 2.296875 -4.273438 2.296875 -3.984375 L 2.296875 -0.59375 C 2.296875 -0.425781 2.238281 -0.28125 2.125 -0.15625 C 2.019531 -0.0390625 1.875 0.015625 1.6875 0.015625 C 1.507812 0.015625 1.363281 -0.0390625 1.25 -0.15625 C 1.132812 -0.28125 1.078125 -0.425781 1.078125 -0.59375 L 1.078125 -8.765625 C 1.078125 -8.941406 1.132812 -9.085938 1.25 -9.203125 C 1.363281 -9.316406 1.507812 -9.375 1.6875 -9.375 C 1.875 -9.375 2.019531 -9.316406 2.125 -9.203125 C 2.238281 -9.085938 2.296875 -8.941406 2.296875 -8.765625 L 2.296875 -5.8125 C 2.554688 -6.070312 2.863281 -6.269531 3.21875 -6.40625 C 3.570312 -6.550781 3.945312 -6.625 4.34375 -6.625 Z M 4.34375 -6.625 "/></g></g></g><g fill="#0f3551" fill-opacity="1"><g transform="translate(87.946977, 173.181812)"><g><path d="M 4.296875 -6.640625 C 4.722656 -6.640625 5.054688 -6.570312 5.296875 -6.4375 C 5.535156 -6.3125 5.65625 -6.15625 5.65625 -5.96875 C 5.65625 -5.90625 5.648438 -5.863281 5.640625 -5.84375 C 5.566406 -5.582031 5.40625 -5.453125 5.15625 -5.453125 C 5.113281 -5.453125 5.054688 -5.460938 4.984375 -5.484375 C 4.660156 -5.535156 4.398438 -5.5625 4.203125 -5.5625 C 3.628906 -5.5625 3.164062 -5.429688 2.8125 -5.171875 C 2.457031 -4.910156 2.28125 -4.554688 2.28125 -4.109375 L 2.28125 -0.59375 C 2.28125 -0.40625 2.226562 -0.257812 2.125 -0.15625 C 2.03125 -0.0507812 1.882812 0 1.6875 0 C 1.488281 0 1.335938 -0.046875 1.234375 -0.140625 C 1.128906 -0.242188 1.078125 -0.394531 1.078125 -0.59375 L 1.078125 -5.96875 C 1.078125 -6.15625 1.128906 -6.300781 1.234375 -6.40625 C 1.335938 -6.507812 1.488281 -6.5625 1.6875 -6.5625 C 2.082031 -6.5625 2.28125 -6.363281 2.28125 -5.96875 L 2.28125 -5.734375 C 2.519531 -6.015625 2.816406 -6.234375 3.171875 -6.390625 C 3.523438 -6.554688 3.898438 -6.640625 4.296875 -6.640625 Z M 4.296875 -6.640625 "/></g></g></g><g fill="#0f3551" fill-opacity="1"><g transform="translate(93.778989, 173.181812)"><g><path d="M 4.0625 0.046875 C 3.414062 0.046875 2.835938 -0.09375 2.328125 -0.375 C 1.828125 -0.65625 1.4375 -1.046875 1.15625 -1.546875 C 0.882812 -2.054688 0.75 -2.632812 0.75 -3.28125 C 0.75 -3.925781 0.882812 -4.5 1.15625 -5 C 1.4375 -5.507812 1.828125 -5.90625 2.328125 -6.1875 C 2.835938 -6.46875 3.414062 -6.609375 4.0625 -6.609375 C 4.6875 -6.609375 5.25 -6.46875 5.75 -6.1875 C 6.25 -5.90625 6.640625 -5.507812 6.921875 -5 C 7.210938 -4.5 7.359375 -3.925781 7.359375 -3.28125 C 7.359375 -2.632812 7.21875 -2.054688 6.9375 -1.546875 C 6.65625 -1.046875 6.265625 -0.65625 5.765625 -0.375 C 5.265625 -0.09375 4.695312 0.046875 4.0625 0.046875 Z M 4.0625 -1.03125 C 4.46875 -1.03125 4.832031 -1.125 5.15625 -1.3125 C 5.476562 -1.507812 5.726562 -1.773438 5.90625 -2.109375 C 6.09375 -2.453125 6.1875 -2.84375 6.1875 -3.28125 C 6.1875 -3.707031 6.09375 -4.09375 5.90625 -4.4375 C 5.726562 -4.78125 5.476562 -5.046875 5.15625 -5.234375 C 4.832031 -5.429688 4.46875 -5.53125 4.0625 -5.53125 C 3.644531 -5.53125 3.273438 -5.429688 2.953125 -5.234375 C 2.628906 -5.046875 2.375 -4.78125 2.1875 -4.4375 C 2.007812 -4.09375 1.921875 -3.707031 1.921875 -3.28125 C 1.921875 -2.84375 2.007812 -2.453125 2.1875 -2.109375 C 2.375 -1.773438 2.628906 -1.507812 2.953125 -1.3125 C 3.273438 -1.125 3.644531 -1.03125 4.0625 -1.03125 Z M 4.0625 -1.03125 "/></g></g></g><g fill="#0f3551" fill-opacity="1"><g transform="translate(101.879002, 173.181812)"><g><path d="M 2.640625 0 C 2.296875 0 1.984375 -0.09375 1.703125 -0.28125 C 1.429688 -0.46875 1.21875 -0.726562 1.0625 -1.0625 C 0.914062 -1.40625 0.84375 -1.789062 0.84375 -2.21875 L 0.84375 -8.765625 C 0.84375 -8.941406 0.894531 -9.085938 1 -9.203125 C 1.113281 -9.316406 1.257812 -9.375 1.4375 -9.375 C 1.613281 -9.375 1.757812 -9.316406 1.875 -9.203125 C 1.988281 -9.085938 2.046875 -8.941406 2.046875 -8.765625 L 2.046875 -2.21875 C 2.046875 -1.925781 2.097656 -1.679688 2.203125 -1.484375 C 2.316406 -1.296875 2.460938 -1.203125 2.640625 -1.203125 L 2.9375 -1.203125 C 3.101562 -1.203125 3.234375 -1.144531 3.328125 -1.03125 C 3.429688 -0.914062 3.484375 -0.769531 3.484375 -0.59375 C 3.484375 -0.425781 3.40625 -0.285156 3.25 -0.171875 C 3.101562 -0.0546875 2.90625 0 2.65625 0 Z M 2.640625 0 "/></g></g></g><g fill="#0f3551" fill-opacity="1"><g transform="translate(105.479004, 173.181812)"><g><path d="M 4.0625 0.046875 C 3.414062 0.046875 2.835938 -0.09375 2.328125 -0.375 C 1.828125 -0.65625 1.4375 -1.046875 1.15625 -1.546875 C 0.882812 -2.054688 0.75 -2.632812 0.75 -3.28125 C 0.75 -3.925781 0.882812 -4.5 1.15625 -5 C 1.4375 -5.507812 1.828125 -5.90625 2.328125 -6.1875 C 2.835938 -6.46875 3.414062 -6.609375 4.0625 -6.609375 C 4.6875 -6.609375 5.25 -6.46875 5.75 -6.1875 C 6.25 -5.90625 6.640625 -5.507812 6.921875 -5 C 7.210938 -4.5 7.359375 -3.925781 7.359375 -3.28125 C 7.359375 -2.632812 7.21875 -2.054688 6.9375 -1.546875 C 6.65625 -1.046875 6.265625 -0.65625 5.765625 -0.375 C 5.265625 -0.09375 4.695312 0.046875 4.0625 0.046875 Z M 4.0625 -1.03125 C 4.46875 -1.03125 4.832031 -1.125 5.15625 -1.3125 C 5.476562 -1.507812 5.726562 -1.773438 5.90625 -2.109375 C 6.09375 -2.453125 6.1875 -2.84375 6.1875 -3.28125 C 6.1875 -3.707031 6.09375 -4.09375 5.90625 -4.4375 C 5.726562 -4.78125 5.476562 -5.046875 5.15625 -5.234375 C 4.832031 -5.429688 4.46875 -5.53125 4.0625 -5.53125 C 3.644531 -5.53125 3.273438 -5.429688 2.953125 -5.234375 C 2.628906 -5.046875 2.375 -4.78125 2.1875 -4.4375 C 2.007812 -4.09375 1.921875 -3.707031 1.921875 -3.28125 C 1.921875 -2.84375 2.007812 -2.453125 2.1875 -2.109375 C 2.375 -1.773438 2.628906 -1.507812 2.953125 -1.3125 C 3.273438 -1.125 3.644531 -1.03125 4.0625 -1.03125 Z M 4.0625 -1.03125 "/></g></g></g><g fill="#0f3551" fill-opacity="1"><g transform="translate(113.579017, 173.181812)"><g><path d="M 4.0625 -6.609375 C 4.6875 -6.609375 5.25 -6.46875 5.75 -6.1875 C 6.25 -5.90625 6.640625 -5.507812 6.921875 -5 C 7.210938 -4.5 7.359375 -3.925781 7.359375 -3.28125 L 7.359375 -0.6875 C 7.359375 -0.0507812 7.21875 0.523438 6.9375 1.046875 C 6.65625 1.566406 6.257812 1.972656 5.75 2.265625 C 5.238281 2.566406 4.664062 2.71875 4.03125 2.71875 C 3.457031 2.71875 2.921875 2.601562 2.421875 2.375 C 1.929688 2.15625 1.515625 1.832031 1.171875 1.40625 C 1.085938 1.289062 1.046875 1.175781 1.046875 1.0625 C 1.046875 0.894531 1.128906 0.753906 1.296875 0.640625 C 1.410156 0.566406 1.519531 0.53125 1.625 0.53125 C 1.832031 0.53125 2 0.613281 2.125 0.78125 C 2.34375 1.0625 2.613281 1.273438 2.9375 1.421875 C 3.269531 1.566406 3.644531 1.640625 4.0625 1.640625 C 4.445312 1.640625 4.800781 1.546875 5.125 1.359375 C 5.445312 1.171875 5.703125 0.894531 5.890625 0.53125 C 6.085938 0.164062 6.1875 -0.265625 6.1875 -0.765625 L 6.1875 -1.359375 C 5.9375 -0.921875 5.601562 -0.578125 5.1875 -0.328125 C 4.78125 -0.078125 4.320312 0.046875 3.8125 0.046875 C 3.21875 0.046875 2.6875 -0.09375 2.21875 -0.375 C 1.757812 -0.65625 1.398438 -1.046875 1.140625 -1.546875 C 0.878906 -2.054688 0.75 -2.632812 0.75 -3.28125 C 0.75 -3.925781 0.882812 -4.5 1.15625 -5 C 1.4375 -5.507812 1.828125 -5.90625 2.328125 -6.1875 C 2.835938 -6.46875 3.414062 -6.609375 4.0625 -6.609375 Z M 4.0625 -1.03125 C 4.46875 -1.03125 4.832031 -1.125 5.15625 -1.3125 C 5.476562 -1.507812 5.726562 -1.773438 5.90625 -2.109375 C 6.09375 -2.453125 6.1875 -2.84375 6.1875 -3.28125 C 6.1875 -3.707031 6.09375 -4.09375 5.90625 -4.4375 C 5.726562 -4.78125 5.476562 -5.046875 5.15625 -5.234375 C 4.832031 -5.429688 4.46875 -5.53125 4.0625 -5.53125 C 3.644531 -5.53125 3.273438 -5.429688 2.953125 -5.234375 C 2.628906 -5.046875 2.375 -4.78125 2.1875 -4.4375 C 2.007812 -4.09375 1.921875 -3.707031 1.921875 -3.28125 C 1.921875 -2.84375 2.007812 -2.453125 2.1875 -2.109375 C 2.375 -1.773438 2.628906 -1.507812 2.953125 -1.3125 C 3.273438 -1.125 3.644531 -1.03125 4.0625 -1.03125 Z M 4.0625 -1.03125 "/></g></g></g><g fill="#0f3551" fill-opacity="1"><g transform="translate(121.67903, 173.181812)"><g><path d="M 1.8125 0 C 1.632812 0 1.488281 -0.0546875 1.375 -0.171875 C 1.257812 -0.285156 1.203125 -0.429688 1.203125 -0.609375 L 1.203125 -5.953125 C 1.203125 -6.140625 1.257812 -6.285156 1.375 -6.390625 C 1.488281 -6.503906 1.632812 -6.5625 1.8125 -6.5625 C 2 -6.5625 2.144531 -6.503906 2.25 -6.390625 C 2.363281 -6.285156 2.421875 -6.140625 2.421875 -5.953125 L 2.421875 -0.609375 C 2.421875 -0.429688 2.363281 -0.285156 2.25 -0.171875 C 2.144531 -0.0546875 2 0 1.8125 0 Z M 1.8125 -7.625 C 1.59375 -7.625 1.40625 -7.703125 1.25 -7.859375 C 1.09375 -8.015625 1.015625 -8.203125 1.015625 -8.421875 C 1.015625 -8.640625 1.09375 -8.828125 1.25 -8.984375 C 1.40625 -9.140625 1.59375 -9.21875 1.8125 -9.21875 C 2.03125 -9.21875 2.21875 -9.140625 2.375 -8.984375 C 2.53125 -8.828125 2.609375 -8.640625 2.609375 -8.421875 C 2.609375 -8.203125 2.53125 -8.015625 2.375 -7.859375 C 2.21875 -7.703125 2.03125 -7.625 1.8125 -7.625 Z M 1.8125 -7.625 "/></g></g></g><g fill="#0f3551" fill-opacity="1"><g transform="translate(125.303042, 173.181812)"><g><path d="M 6.96875 -3.390625 C 6.96875 -3.234375 6.914062 -3.101562 6.8125 -3 C 6.707031 -2.90625 6.578125 -2.859375 6.421875 -2.859375 L 1.859375 -2.859375 C 1.941406 -2.296875 2.191406 -1.84375 2.609375 -1.5 C 3.035156 -1.15625 3.550781 -0.984375 4.15625 -0.984375 C 4.40625 -0.984375 4.65625 -1.023438 4.90625 -1.109375 C 5.164062 -1.203125 5.382812 -1.3125 5.5625 -1.4375 C 5.664062 -1.53125 5.796875 -1.578125 5.953125 -1.578125 C 6.109375 -1.578125 6.226562 -1.535156 6.3125 -1.453125 C 6.457031 -1.328125 6.53125 -1.191406 6.53125 -1.046875 C 6.53125 -0.898438 6.46875 -0.78125 6.34375 -0.6875 C 6.0625 -0.46875 5.71875 -0.289062 5.3125 -0.15625 C 4.914062 -0.0195312 4.53125 0.046875 4.15625 0.046875 C 3.507812 0.046875 2.925781 -0.09375 2.40625 -0.375 C 1.882812 -0.65625 1.476562 -1.046875 1.1875 -1.546875 C 0.894531 -2.054688 0.75 -2.632812 0.75 -3.28125 C 0.75 -3.914062 0.882812 -4.488281 1.15625 -5 C 1.4375 -5.507812 1.820312 -5.90625 2.3125 -6.1875 C 2.800781 -6.46875 3.359375 -6.609375 3.984375 -6.609375 C 4.597656 -6.609375 5.128906 -6.472656 5.578125 -6.203125 C 6.023438 -5.929688 6.367188 -5.550781 6.609375 -5.0625 C 6.847656 -4.570312 6.96875 -4.015625 6.96875 -3.390625 Z M 3.984375 -5.578125 C 3.398438 -5.578125 2.925781 -5.414062 2.5625 -5.09375 C 2.195312 -4.78125 1.96875 -4.351562 1.875 -3.8125 L 5.875 -3.8125 C 5.800781 -4.351562 5.597656 -4.78125 5.265625 -5.09375 C 4.941406 -5.414062 4.515625 -5.578125 3.984375 -5.578125 Z M 3.984375 -5.578125 "/></g></g></g><g fill="#0f3551" fill-opacity="1"><g transform="translate(54.958916, 189.68181)"><g><path d="M 4.171875 0.125 C 3.398438 0.125 2.695312 -0.0507812 2.0625 -0.40625 C 1.425781 -0.757812 0.988281 -1.21875 0.75 -1.78125 C 0.707031 -1.882812 0.6875 -1.96875 0.6875 -2.03125 C 0.6875 -2.144531 0.726562 -2.25 0.8125 -2.34375 C 0.90625 -2.4375 1.023438 -2.5 1.171875 -2.53125 C 1.203125 -2.539062 1.242188 -2.546875 1.296875 -2.546875 C 1.421875 -2.546875 1.539062 -2.503906 1.65625 -2.421875 C 1.78125 -2.347656 1.867188 -2.25 1.921875 -2.125 C 2.066406 -1.8125 2.347656 -1.546875 2.765625 -1.328125 C 3.191406 -1.117188 3.660156 -1.015625 4.171875 -1.015625 C 4.773438 -1.015625 5.285156 -1.148438 5.703125 -1.421875 C 6.117188 -1.703125 6.328125 -2.082031 6.328125 -2.5625 C 6.328125 -3.007812 6.148438 -3.394531 5.796875 -3.71875 C 5.441406 -4.050781 4.90625 -4.25 4.1875 -4.3125 C 3.195312 -4.414062 2.414062 -4.707031 1.84375 -5.1875 C 1.28125 -5.675781 1 -6.285156 1 -7.015625 C 1 -7.523438 1.144531 -7.960938 1.4375 -8.328125 C 1.726562 -8.703125 2.125 -8.988281 2.625 -9.1875 C 3.132812 -9.382812 3.707031 -9.484375 4.34375 -9.484375 C 5.03125 -9.484375 5.609375 -9.34375 6.078125 -9.0625 C 6.554688 -8.78125 6.957031 -8.378906 7.28125 -7.859375 C 7.375 -7.703125 7.421875 -7.554688 7.421875 -7.421875 C 7.421875 -7.242188 7.34375 -7.101562 7.1875 -7 C 7.101562 -6.9375 7 -6.90625 6.875 -6.90625 C 6.757812 -6.90625 6.648438 -6.9375 6.546875 -7 C 6.441406 -7.0625 6.359375 -7.144531 6.296875 -7.25 C 6.078125 -7.601562 5.804688 -7.875 5.484375 -8.0625 C 5.160156 -8.257812 4.753906 -8.359375 4.265625 -8.359375 C 3.648438 -8.359375 3.15625 -8.238281 2.78125 -8 C 2.40625 -7.757812 2.21875 -7.414062 2.21875 -6.96875 C 2.21875 -6.550781 2.382812 -6.203125 2.71875 -5.921875 C 3.0625 -5.648438 3.664062 -5.46875 4.53125 -5.375 C 5.488281 -5.28125 6.226562 -4.988281 6.75 -4.5 C 7.28125 -4.019531 7.546875 -3.382812 7.546875 -2.59375 C 7.546875 -2.019531 7.390625 -1.523438 7.078125 -1.109375 C 6.765625 -0.691406 6.347656 -0.378906 5.828125 -0.171875 C 5.316406 0.0234375 4.765625 0.125 4.171875 0.125 Z M 4.171875 0.125 "/></g></g></g><g fill="#0f3551" fill-opacity="1"><g transform="translate(63.214935, 189.68181)"><g><path d="M 6.09375 -6.5 C 6.34375 -6.40625 6.46875 -6.25 6.46875 -6.03125 C 6.46875 -5.957031 6.441406 -5.863281 6.390625 -5.75 L 2.71875 2.515625 C 2.625 2.753906 2.46875 2.875 2.25 2.875 C 2.175781 2.875 2.082031 2.851562 1.96875 2.8125 C 1.726562 2.707031 1.609375 2.550781 1.609375 2.34375 C 1.609375 2.25 1.632812 2.148438 1.6875 2.046875 L 2.875 -0.640625 L 0.1875 -5.765625 C 0.144531 -5.835938 0.125 -5.925781 0.125 -6.03125 C 0.125 -6.132812 0.15625 -6.226562 0.21875 -6.3125 C 0.28125 -6.394531 0.363281 -6.460938 0.46875 -6.515625 C 0.539062 -6.546875 0.617188 -6.5625 0.703125 -6.5625 C 0.929688 -6.5625 1.101562 -6.453125 1.21875 -6.234375 L 3.40625 -1.859375 L 5.34375 -6.21875 C 5.445312 -6.445312 5.601562 -6.5625 5.8125 -6.5625 C 5.914062 -6.5625 6.007812 -6.539062 6.09375 -6.5 Z M 6.09375 -6.5 "/></g></g></g><g fill="#0f3551" fill-opacity="1"><g transform="translate(69.682952, 189.68181)"><g><path d="M 2.640625 0 C 2.296875 0 1.984375 -0.09375 1.703125 -0.28125 C 1.429688 -0.46875 1.21875 -0.726562 1.0625 -1.0625 C 0.914062 -1.40625 0.84375 -1.789062 0.84375 -2.21875 L 0.84375 -8.765625 C 0.84375 -8.941406 0.894531 -9.085938 1 -9.203125 C 1.113281 -9.316406 1.257812 -9.375 1.4375 -9.375 C 1.613281 -9.375 1.757812 -9.316406 1.875 -9.203125 C 1.988281 -9.085938 2.046875 -8.941406 2.046875 -8.765625 L 2.046875 -2.21875 C 2.046875 -1.925781 2.097656 -1.679688 2.203125 -1.484375 C 2.316406 -1.296875 2.460938 -1.203125 2.640625 -1.203125 L 2.9375 -1.203125 C 3.101562 -1.203125 3.234375 -1.144531 3.328125 -1.03125 C 3.429688 -0.914062 3.484375 -0.769531 3.484375 -0.59375 C 3.484375 -0.425781 3.40625 -0.285156 3.25 -0.171875 C 3.101562 -0.0546875 2.90625 0 2.65625 0 Z M 2.640625 0 "/></g></g></g><g fill="#0f3551" fill-opacity="1"><g transform="translate(73.282954, 189.68181)"><g><path d="M 6.125 -6.484375 C 6.226562 -6.429688 6.304688 -6.363281 6.359375 -6.28125 C 6.421875 -6.195312 6.453125 -6.101562 6.453125 -6 C 6.453125 -5.925781 6.429688 -5.847656 6.390625 -5.765625 L 3.859375 -0.40625 C 3.734375 -0.144531 3.546875 -0.015625 3.296875 -0.015625 C 3.160156 -0.015625 3.046875 -0.0390625 2.953125 -0.09375 C 2.867188 -0.15625 2.789062 -0.257812 2.71875 -0.40625 L 0.1875 -5.765625 C 0.144531 -5.835938 0.125 -5.910156 0.125 -5.984375 C 0.125 -6.203125 0.238281 -6.367188 0.46875 -6.484375 C 0.539062 -6.523438 0.625 -6.546875 0.71875 -6.546875 C 0.8125 -6.546875 0.898438 -6.519531 0.984375 -6.46875 C 1.078125 -6.414062 1.148438 -6.335938 1.203125 -6.234375 L 3.28125 -1.734375 L 5.359375 -6.234375 C 5.398438 -6.335938 5.46875 -6.414062 5.5625 -6.46875 C 5.65625 -6.519531 5.753906 -6.546875 5.859375 -6.546875 C 5.960938 -6.546875 6.050781 -6.523438 6.125 -6.484375 Z M 6.125 -6.484375 "/></g></g></g><g fill="#0f3551" fill-opacity="1"><g transform="translate(79.858969, 189.68181)"><g><path d="M 1.8125 0 C 1.632812 0 1.488281 -0.0546875 1.375 -0.171875 C 1.257812 -0.285156 1.203125 -0.429688 1.203125 -0.609375 L 1.203125 -5.953125 C 1.203125 -6.140625 1.257812 -6.285156 1.375 -6.390625 C 1.488281 -6.503906 1.632812 -6.5625 1.8125 -6.5625 C 2 -6.5625 2.144531 -6.503906 2.25 -6.390625 C 2.363281 -6.285156 2.421875 -6.140625 2.421875 -5.953125 L 2.421875 -0.609375 C 2.421875 -0.429688 2.363281 -0.285156 2.25 -0.171875 C 2.144531 -0.0546875 2 0 1.8125 0 Z M 1.8125 -7.625 C 1.59375 -7.625 1.40625 -7.703125 1.25 -7.859375 C 1.09375 -8.015625 1.015625 -8.203125 1.015625 -8.421875 C 1.015625 -8.640625 1.09375 -8.828125 1.25 -8.984375 C 1.40625 -9.140625 1.59375 -9.21875 1.8125 -9.21875 C 2.03125 -9.21875 2.21875 -9.140625 2.375 -8.984375 C 2.53125 -8.828125 2.609375 -8.640625 2.609375 -8.421875 C 2.609375 -8.203125 2.53125 -8.015625 2.375 -7.859375 C 2.21875 -7.703125 2.03125 -7.625 1.8125 -7.625 Z M 1.8125 -7.625 "/></g></g></g><g fill="#0f3551" fill-opacity="1"><g transform="translate(83.482981, 189.68181)"><g><path d="M 4.0625 0.046875 C 3.414062 0.046875 2.835938 -0.09375 2.328125 -0.375 C 1.828125 -0.65625 1.4375 -1.046875 1.15625 -1.546875 C 0.882812 -2.054688 0.75 -2.632812 0.75 -3.28125 C 0.75 -3.925781 0.882812 -4.5 1.15625 -5 C 1.4375 -5.507812 1.828125 -5.90625 2.328125 -6.1875 C 2.835938 -6.46875 3.414062 -6.609375 4.0625 -6.609375 C 4.6875 -6.609375 5.25 -6.46875 5.75 -6.1875 C 6.25 -5.90625 6.640625 -5.507812 6.921875 -5 C 7.210938 -4.5 7.359375 -3.925781 7.359375 -3.28125 C 7.359375 -2.632812 7.21875 -2.054688 6.9375 -1.546875 C 6.65625 -1.046875 6.265625 -0.65625 5.765625 -0.375 C 5.265625 -0.09375 4.695312 0.046875 4.0625 0.046875 Z M 4.0625 -1.03125 C 4.46875 -1.03125 4.832031 -1.125 5.15625 -1.3125 C 5.476562 -1.507812 5.726562 -1.773438 5.90625 -2.109375 C 6.09375 -2.453125 6.1875 -2.84375 6.1875 -3.28125 C 6.1875 -3.707031 6.09375 -4.09375 5.90625 -4.4375 C 5.726562 -4.78125 5.476562 -5.046875 5.15625 -5.234375 C 4.832031 -5.429688 4.46875 -5.53125 4.0625 -5.53125 C 3.644531 -5.53125 3.273438 -5.429688 2.953125 -5.234375 C 2.628906 -5.046875 2.375 -4.78125 2.1875 -4.4375 C 2.007812 -4.09375 1.921875 -3.707031 1.921875 -3.28125 C 1.921875 -2.84375 2.007812 -2.453125 2.1875 -2.109375 C 2.375 -1.773438 2.628906 -1.507812 2.953125 -1.3125 C 3.273438 -1.125 3.644531 -1.03125 4.0625 -1.03125 Z M 4.0625 -1.03125 "/></g></g></g><g fill="#0f3551" fill-opacity="1"><g transform="translate(91.582994, 189.68181)"><g><path d="M 3.875 -1.203125 C 4.019531 -1.203125 4.140625 -1.144531 4.234375 -1.03125 C 4.335938 -0.914062 4.390625 -0.769531 4.390625 -0.59375 C 4.390625 -0.425781 4.320312 -0.285156 4.1875 -0.171875 C 4.0625 -0.0546875 3.894531 0 3.6875 0 L 3.46875 0 C 3.070312 0 2.710938 -0.0976562 2.390625 -0.296875 C 2.066406 -0.503906 1.8125 -0.785156 1.625 -1.140625 C 1.445312 -1.492188 1.359375 -1.890625 1.359375 -2.328125 L 1.359375 -5.296875 L 0.796875 -5.296875 C 0.628906 -5.296875 0.492188 -5.34375 0.390625 -5.4375 C 0.285156 -5.53125 0.234375 -5.648438 0.234375 -5.796875 C 0.234375 -5.953125 0.285156 -6.078125 0.390625 -6.171875 C 0.492188 -6.273438 0.628906 -6.328125 0.796875 -6.328125 L 1.359375 -6.328125 L 1.359375 -8.046875 C 1.359375 -8.222656 1.410156 -8.367188 1.515625 -8.484375 C 1.628906 -8.597656 1.773438 -8.65625 1.953125 -8.65625 C 2.128906 -8.65625 2.273438 -8.597656 2.390625 -8.484375 C 2.503906 -8.367188 2.5625 -8.222656 2.5625 -8.046875 L 2.5625 -6.328125 L 3.578125 -6.328125 C 3.742188 -6.328125 3.878906 -6.273438 3.984375 -6.171875 C 4.085938 -6.078125 4.140625 -5.953125 4.140625 -5.796875 C 4.140625 -5.648438 4.085938 -5.53125 3.984375 -5.4375 C 3.878906 -5.34375 3.742188 -5.296875 3.578125 -5.296875 L 2.5625 -5.296875 L 2.5625 -2.328125 C 2.5625 -2.003906 2.644531 -1.734375 2.8125 -1.515625 C 2.988281 -1.304688 3.207031 -1.203125 3.46875 -1.203125 Z M 3.875 -1.203125 "/></g></g></g><g fill="#0f3551" fill-opacity="1"><g transform="translate(96.395005, 189.68181)"><g><path d="M 4.34375 -6.625 C 4.894531 -6.625 5.390625 -6.503906 5.828125 -6.265625 C 6.265625 -6.023438 6.609375 -5.675781 6.859375 -5.21875 C 7.109375 -4.757812 7.234375 -4.203125 7.234375 -3.546875 L 7.234375 -0.59375 C 7.234375 -0.425781 7.175781 -0.28125 7.0625 -0.15625 C 6.945312 -0.0390625 6.800781 0.015625 6.625 0.015625 C 6.445312 0.015625 6.300781 -0.0390625 6.1875 -0.15625 C 6.070312 -0.28125 6.015625 -0.425781 6.015625 -0.59375 L 6.015625 -3.546875 C 6.015625 -4.203125 5.835938 -4.691406 5.484375 -5.015625 C 5.140625 -5.347656 4.679688 -5.515625 4.109375 -5.515625 C 3.765625 -5.515625 3.453125 -5.445312 3.171875 -5.3125 C 2.898438 -5.175781 2.6875 -4.992188 2.53125 -4.765625 C 2.375 -4.535156 2.296875 -4.273438 2.296875 -3.984375 L 2.296875 -0.59375 C 2.296875 -0.425781 2.238281 -0.28125 2.125 -0.15625 C 2.019531 -0.0390625 1.875 0.015625 1.6875 0.015625 C 1.507812 0.015625 1.363281 -0.0390625 1.25 -0.15625 C 1.132812 -0.28125 1.078125 -0.425781 1.078125 -0.59375 L 1.078125 -8.765625 C 1.078125 -8.941406 1.132812 -9.085938 1.25 -9.203125 C 1.363281 -9.316406 1.507812 -9.375 1.6875 -9.375 C 1.875 -9.375 2.019531 -9.316406 2.125 -9.203125 C 2.238281 -9.085938 2.296875 -8.941406 2.296875 -8.765625 L 2.296875 -5.8125 C 2.554688 -6.070312 2.863281 -6.269531 3.21875 -6.40625 C 3.570312 -6.550781 3.945312 -6.625 4.34375 -6.625 Z M 4.34375 -6.625 "/></g></g></g><g fill="#0f3551" fill-opacity="1"><g transform="translate(104.591023, 189.68181)"><g><path d="M 6.96875 -3.390625 C 6.96875 -3.234375 6.914062 -3.101562 6.8125 -3 C 6.707031 -2.90625 6.578125 -2.859375 6.421875 -2.859375 L 1.859375 -2.859375 C 1.941406 -2.296875 2.191406 -1.84375 2.609375 -1.5 C 3.035156 -1.15625 3.550781 -0.984375 4.15625 -0.984375 C 4.40625 -0.984375 4.65625 -1.023438 4.90625 -1.109375 C 5.164062 -1.203125 5.382812 -1.3125 5.5625 -1.4375 C 5.664062 -1.53125 5.796875 -1.578125 5.953125 -1.578125 C 6.109375 -1.578125 6.226562 -1.535156 6.3125 -1.453125 C 6.457031 -1.328125 6.53125 -1.191406 6.53125 -1.046875 C 6.53125 -0.898438 6.46875 -0.78125 6.34375 -0.6875 C 6.0625 -0.46875 5.71875 -0.289062 5.3125 -0.15625 C 4.914062 -0.0195312 4.53125 0.046875 4.15625 0.046875 C 3.507812 0.046875 2.925781 -0.09375 2.40625 -0.375 C 1.882812 -0.65625 1.476562 -1.046875 1.1875 -1.546875 C 0.894531 -2.054688 0.75 -2.632812 0.75 -3.28125 C 0.75 -3.914062 0.882812 -4.488281 1.15625 -5 C 1.4375 -5.507812 1.820312 -5.90625 2.3125 -6.1875 C 2.800781 -6.46875 3.359375 -6.609375 3.984375 -6.609375 C 4.597656 -6.609375 5.128906 -6.472656 5.578125 -6.203125 C 6.023438 -5.929688 6.367188 -5.550781 6.609375 -5.0625 C 6.847656 -4.570312 6.96875 -4.015625 6.96875 -3.390625 Z M 3.984375 -5.578125 C 3.398438 -5.578125 2.925781 -5.414062 2.5625 -5.09375 C 2.195312 -4.78125 1.96875 -4.351562 1.875 -3.8125 L 5.875 -3.8125 C 5.800781 -4.351562 5.597656 -4.78125 5.265625 -5.09375 C 4.941406 -5.414062 4.515625 -5.578125 3.984375 -5.578125 Z M 3.921875 -7.59375 C 3.734375 -7.59375 3.582031 -7.648438 3.46875 -7.765625 C 3.363281 -7.878906 3.3125 -8.023438 3.3125 -8.203125 C 3.3125 -8.367188 3.359375 -8.503906 3.453125 -8.609375 L 4.625 -9.796875 C 4.75 -9.910156 4.894531 -9.96875 5.0625 -9.96875 C 5.238281 -9.96875 5.382812 -9.90625 5.5 -9.78125 C 5.613281 -9.664062 5.671875 -9.519531 5.671875 -9.34375 C 5.671875 -9.164062 5.613281 -9.023438 5.5 -8.921875 L 4.34375 -7.765625 C 4.226562 -7.648438 4.085938 -7.59375 3.921875 -7.59375 Z M 3.921875 -7.59375 "/></g></g></g><g fill="#0f3551" fill-opacity="1"><g transform="translate(112.043037, 189.68181)"><g><path d="M 4.296875 -6.640625 C 4.722656 -6.640625 5.054688 -6.570312 5.296875 -6.4375 C 5.535156 -6.3125 5.65625 -6.15625 5.65625 -5.96875 C 5.65625 -5.90625 5.648438 -5.863281 5.640625 -5.84375 C 5.566406 -5.582031 5.40625 -5.453125 5.15625 -5.453125 C 5.113281 -5.453125 5.054688 -5.460938 4.984375 -5.484375 C 4.660156 -5.535156 4.398438 -5.5625 4.203125 -5.5625 C 3.628906 -5.5625 3.164062 -5.429688 2.8125 -5.171875 C 2.457031 -4.910156 2.28125 -4.554688 2.28125 -4.109375 L 2.28125 -0.59375 C 2.28125 -0.40625 2.226562 -0.257812 2.125 -0.15625 C 2.03125 -0.0507812 1.882812 0 1.6875 0 C 1.488281 0 1.335938 -0.046875 1.234375 -0.140625 C 1.128906 -0.242188 1.078125 -0.394531 1.078125 -0.59375 L 1.078125 -5.96875 C 1.078125 -6.15625 1.128906 -6.300781 1.234375 -6.40625 C 1.335938 -6.507812 1.488281 -6.5625 1.6875 -6.5625 C 2.082031 -6.5625 2.28125 -6.363281 2.28125 -5.96875 L 2.28125 -5.734375 C 2.519531 -6.015625 2.816406 -6.234375 3.171875 -6.390625 C 3.523438 -6.554688 3.898438 -6.640625 4.296875 -6.640625 Z M 4.296875 -6.640625 "/></g></g></g><g fill="#0f3551" fill-opacity="1"><g transform="translate(117.875049, 189.68181)"><g><path d="M 4.0625 -6.609375 C 4.675781 -6.609375 5.234375 -6.460938 5.734375 -6.171875 C 6.234375 -5.878906 6.628906 -5.476562 6.921875 -4.96875 C 7.210938 -4.46875 7.359375 -3.90625 7.359375 -3.28125 L 7.359375 -0.59375 C 7.359375 -0.425781 7.300781 -0.28125 7.1875 -0.15625 C 7.070312 -0.0390625 6.925781 0.015625 6.75 0.015625 C 6.570312 0.015625 6.421875 -0.0390625 6.296875 -0.15625 C 6.179688 -0.28125 6.125 -0.425781 6.125 -0.59375 L 6.125 -1.046875 C 5.851562 -0.703125 5.515625 -0.429688 5.109375 -0.234375 C 4.710938 -0.046875 4.28125 0.046875 3.8125 0.046875 C 3.238281 0.046875 2.71875 -0.09375 2.25 -0.375 C 1.78125 -0.664062 1.410156 -1.066406 1.140625 -1.578125 C 0.878906 -2.085938 0.75 -2.65625 0.75 -3.28125 C 0.75 -3.90625 0.890625 -4.46875 1.171875 -4.96875 C 1.460938 -5.476562 1.859375 -5.878906 2.359375 -6.171875 C 2.867188 -6.460938 3.4375 -6.609375 4.0625 -6.609375 Z M 4.0625 -1.03125 C 4.457031 -1.03125 4.816406 -1.128906 5.140625 -1.328125 C 5.460938 -1.523438 5.71875 -1.789062 5.90625 -2.125 C 6.09375 -2.46875 6.1875 -2.851562 6.1875 -3.28125 C 6.1875 -3.695312 6.09375 -4.078125 5.90625 -4.421875 C 5.71875 -4.765625 5.460938 -5.035156 5.140625 -5.234375 C 4.816406 -5.429688 4.457031 -5.53125 4.0625 -5.53125 C 3.65625 -5.53125 3.289062 -5.429688 2.96875 -5.234375 C 2.644531 -5.035156 2.390625 -4.765625 2.203125 -4.421875 C 2.015625 -4.078125 1.921875 -3.695312 1.921875 -3.28125 C 1.921875 -2.851562 2.015625 -2.46875 2.203125 -2.125 C 2.390625 -1.789062 2.644531 -1.523438 2.96875 -1.328125 C 3.289062 -1.128906 3.65625 -1.03125 4.0625 -1.03125 Z M 4.0625 -1.03125 "/></g></g></g><g fill="#0f3551" fill-opacity="1"><g transform="translate(125.975062, 189.68181)"><g><path d="M 4.375 -6.609375 C 4.988281 -6.609375 5.550781 -6.460938 6.0625 -6.171875 C 6.570312 -5.878906 6.96875 -5.476562 7.25 -4.96875 C 7.539062 -4.46875 7.6875 -3.90625 7.6875 -3.28125 C 7.6875 -2.65625 7.550781 -2.085938 7.28125 -1.578125 C 7.019531 -1.066406 6.65625 -0.664062 6.1875 -0.375 C 5.71875 -0.09375 5.195312 0.046875 4.625 0.046875 C 4.15625 0.046875 3.71875 -0.046875 3.3125 -0.234375 C 2.914062 -0.429688 2.578125 -0.703125 2.296875 -1.046875 L 2.296875 2.203125 C 2.296875 2.378906 2.238281 2.523438 2.125 2.640625 C 2.019531 2.753906 1.875 2.8125 1.6875 2.8125 C 1.507812 2.8125 1.363281 2.753906 1.25 2.640625 C 1.132812 2.523438 1.078125 2.378906 1.078125 2.203125 L 1.078125 -3.28125 C 1.078125 -3.90625 1.222656 -4.46875 1.515625 -4.96875 C 1.804688 -5.476562 2.203125 -5.878906 2.703125 -6.171875 C 3.203125 -6.460938 3.757812 -6.609375 4.375 -6.609375 Z M 4.375 -1.03125 C 4.78125 -1.03125 5.144531 -1.128906 5.46875 -1.328125 C 5.789062 -1.523438 6.046875 -1.789062 6.234375 -2.125 C 6.421875 -2.46875 6.515625 -2.851562 6.515625 -3.28125 C 6.515625 -3.695312 6.421875 -4.078125 6.234375 -4.421875 C 6.046875 -4.765625 5.789062 -5.035156 5.46875 -5.234375 C 5.144531 -5.429688 4.78125 -5.53125 4.375 -5.53125 C 3.976562 -5.53125 3.617188 -5.429688 3.296875 -5.234375 C 2.972656 -5.035156 2.71875 -4.765625 2.53125 -4.421875 C 2.34375 -4.078125 2.25 -3.695312 2.25 -3.28125 C 2.25 -2.851562 2.34375 -2.46875 2.53125 -2.125 C 2.71875 -1.789062 2.972656 -1.523438 3.296875 -1.328125 C 3.617188 -1.128906 3.976562 -1.03125 4.375 -1.03125 Z M 4.375 -1.03125 "/></g></g></g><g fill="#0f3551" fill-opacity="1"><g transform="translate(134.411073, 189.68181)"><g><path d="M 1.8125 0 C 1.632812 0 1.488281 -0.0546875 1.375 -0.171875 C 1.257812 -0.285156 1.203125 -0.429688 1.203125 -0.609375 L 1.203125 -5.953125 C 1.203125 -6.140625 1.257812 -6.285156 1.375 -6.390625 C 1.488281 -6.503906 1.632812 -6.5625 1.8125 -6.5625 C 2 -6.5625 2.144531 -6.503906 2.25 -6.390625 C 2.363281 -6.285156 2.421875 -6.140625 2.421875 -5.953125 L 2.421875 -0.609375 C 2.421875 -0.429688 2.363281 -0.285156 2.25 -0.171875 C 2.144531 -0.0546875 2 0 1.8125 0 Z M 1.8125 -7.625 C 1.59375 -7.625 1.40625 -7.703125 1.25 -7.859375 C 1.09375 -8.015625 1.015625 -8.203125 1.015625 -8.421875 C 1.015625 -8.640625 1.09375 -8.828125 1.25 -8.984375 C 1.40625 -9.140625 1.59375 -9.21875 1.8125 -9.21875 C 2.03125 -9.21875 2.21875 -9.140625 2.375 -8.984375 C 2.53125 -8.828125 2.609375 -8.640625 2.609375 -8.421875 C 2.609375 -8.203125 2.53125 -8.015625 2.375 -7.859375 C 2.21875 -7.703125 2.03125 -7.625 1.8125 -7.625 Z M 1.8125 -7.625 "/></g></g></g><g fill="#0f3551" fill-opacity="1"><g transform="translate(138.035085, 189.68181)"><g><path d="M 6.96875 -3.390625 C 6.96875 -3.234375 6.914062 -3.101562 6.8125 -3 C 6.707031 -2.90625 6.578125 -2.859375 6.421875 -2.859375 L 1.859375 -2.859375 C 1.941406 -2.296875 2.191406 -1.84375 2.609375 -1.5 C 3.035156 -1.15625 3.550781 -0.984375 4.15625 -0.984375 C 4.40625 -0.984375 4.65625 -1.023438 4.90625 -1.109375 C 5.164062 -1.203125 5.382812 -1.3125 5.5625 -1.4375 C 5.664062 -1.53125 5.796875 -1.578125 5.953125 -1.578125 C 6.109375 -1.578125 6.226562 -1.535156 6.3125 -1.453125 C 6.457031 -1.328125 6.53125 -1.191406 6.53125 -1.046875 C 6.53125 -0.898438 6.46875 -0.78125 6.34375 -0.6875 C 6.0625 -0.46875 5.71875 -0.289062 5.3125 -0.15625 C 4.914062 -0.0195312 4.53125 0.046875 4.15625 0.046875 C 3.507812 0.046875 2.925781 -0.09375 2.40625 -0.375 C 1.882812 -0.65625 1.476562 -1.046875 1.1875 -1.546875 C 0.894531 -2.054688 0.75 -2.632812 0.75 -3.28125 C 0.75 -3.914062 0.882812 -4.488281 1.15625 -5 C 1.4375 -5.507812 1.820312 -5.90625 2.3125 -6.1875 C 2.800781 -6.46875 3.359375 -6.609375 3.984375 -6.609375 C 4.597656 -6.609375 5.128906 -6.472656 5.578125 -6.203125 C 6.023438 -5.929688 6.367188 -5.550781 6.609375 -5.0625 C 6.847656 -4.570312 6.96875 -4.015625 6.96875 -3.390625 Z M 3.984375 -5.578125 C 3.398438 -5.578125 2.925781 -5.414062 2.5625 -5.09375 C 2.195312 -4.78125 1.96875 -4.351562 1.875 -3.8125 L 5.875 -3.8125 C 5.800781 -4.351562 5.597656 -4.78125 5.265625 -5.09375 C 4.941406 -5.414062 4.515625 -5.578125 3.984375 -5.578125 Z M 3.984375 -5.578125 "/></g></g></g><g clip-path="url(#6b66b8d048)"><g clip-path="url(#918220120e)"><path fill="#ca5a47" d="M 264.304688 142.503906 L 274.761719 142.503906 L 274.761719 152.960938 L 264.304688 152.960938 Z M 264.304688 142.503906 " fill-opacity="1" fill-rule="nonzero"/></g></g><path fill="#0f3551" d="M 269.152344 120.863281 C 270.816406 121.015625 272.484375 121.117188 274.136719 121.335938 C 275.769531 121.554688 277.324219 122.089844 278.859375 122.675781 C 282.835938 124.199219 286.300781 126.5 289.21875 129.601562 C 291.273438 131.785156 292.957031 134.226562 294.144531 136.992188 C 294.902344 138.757812 295.46875 140.582031 295.828125 142.476562 C 296.246094 144.660156 296.371094 146.855469 296.242188 149.0625 C 296.175781 150.203125 295.984375 151.339844 295.777344 152.464844 C 295.417969 154.414062 294.777344 156.28125 293.992188 158.101562 C 292.6875 161.132812 290.828125 163.789062 288.5625 166.175781 C 285.796875 169.089844 282.5 171.1875 278.746094 172.59375 C 276.53125 173.425781 274.253906 173.996094 271.90625 174.234375 C 269.277344 174.5 266.65625 174.4375 264.058594 173.859375 C 261.976562 173.390625 259.941406 172.8125 257.988281 171.945312 C 255.621094 170.894531 253.480469 169.496094 251.503906 167.828125 C 249.863281 166.441406 248.4375 164.863281 247.15625 163.144531 C 245.53125 160.972656 244.292969 158.601562 243.414062 156.039062 C 242.636719 153.765625 242.171875 151.429688 242.023438 149.027344 C 241.878906 146.691406 242.039062 144.378906 242.519531 142.097656 C 243.035156 139.660156 243.886719 137.335938 245.09375 135.148438 C 246.246094 133.058594 247.667969 131.171875 249.304688 129.441406 C 252.707031 125.839844 256.824219 123.410156 261.539062 121.976562 C 264.050781 121.210938 266.328125 120.933594 269.144531 120.945312 C 269.148438 120.917969 269.152344 120.890625 269.152344 120.863281 Z M 294.570312 147.210938 C 294.574219 145.433594 294.367188 143.6875 293.976562 141.949219 C 293.421875 139.476562 292.519531 137.144531 291.210938 134.980469 C 289.667969 132.429688 287.707031 130.238281 285.378906 128.367188 C 282.785156 126.285156 279.929688 124.683594 276.738281 123.734375 C 275.671875 123.417969 274.5625 123.246094 273.480469 122.972656 C 272.277344 122.667969 271.054688 122.523438 269.816406 122.535156 C 268.109375 122.550781 266.417969 122.691406 264.742188 122.988281 C 262.898438 123.3125 261.082031 123.757812 259.359375 124.492188 C 255.722656 126.046875 252.574219 128.289062 249.953125 131.257812 C 248.441406 132.964844 247.105469 134.796875 246.113281 136.863281 C 244.941406 139.300781 244.1875 141.859375 243.84375 144.535156 C 243.53125 146.984375 243.648438 149.429688 244.09375 151.855469 C 244.472656 153.894531 245.058594 155.871094 245.933594 157.753906 C 247.800781 161.773438 250.546875 165.085938 254.109375 167.707031 C 256.6875 169.605469 259.527344 171 262.613281 171.863281 C 264.410156 172.367188 266.265625 172.582031 268.121094 172.65625 C 271.371094 172.785156 274.546875 172.285156 277.625 171.21875 C 280.148438 170.347656 282.464844 169.085938 284.582031 167.457031 C 286.660156 165.863281 288.441406 163.988281 289.957031 161.847656 C 291.128906 160.191406 292.082031 158.429688 292.816406 156.539062 C 293.980469 153.535156 294.558594 150.429688 294.570312 147.210938 Z M 294.570312 147.210938 " fill-opacity="1" fill-rule="nonzero"/><path fill="#0f3551" d="M 269.097656 157.652344 C 269.222656 157.464844 269.320312 157.308594 269.425781 157.160156 C 270.578125 155.496094 272.175781 154.625 274.1875 154.507812 C 274.652344 154.480469 275.121094 154.445312 275.582031 154.480469 C 276.953125 154.574219 277.964844 153.960938 278.75 152.902344 C 279.304688 152.152344 279.675781 151.320312 279.816406 150.390625 C 279.828125 150.292969 279.789062 150.191406 279.773438 150.089844 C 279.679688 150.101562 279.582031 150.101562 279.496094 150.136719 C 278.503906 150.5 277.621094 151.066406 276.746094 151.640625 C 276.53125 151.78125 276.300781 151.90625 276.058594 151.980469 C 275.578125 152.132812 275.214844 151.789062 275.382812 151.320312 C 275.480469 151.039062 275.671875 150.78125 275.875 150.558594 C 276.722656 149.636719 277.808594 149.113281 278.984375 148.742188 C 279.5 148.582031 280.003906 148.367188 280.503906 148.160156 C 281.222656 147.863281 281.414062 147.878906 281.449219 148.726562 C 281.507812 150.105469 281.402344 151.457031 280.785156 152.714844 C 280.035156 154.253906 278.84375 155.328125 277.195312 155.816406 C 276.617188 155.988281 275.988281 155.992188 275.378906 156.050781 C 274.671875 156.121094 273.953125 156.105469 273.257812 156.238281 C 271.632812 156.546875 270.578125 157.523438 270.164062 159.144531 C 270.042969 159.621094 269.957031 160.109375 269.871094 160.59375 C 269.8125 160.910156 269.875 160.960938 270.203125 160.917969 C 271.597656 160.722656 272.964844 160.410156 274.296875 159.949219 C 275.359375 159.582031 276.460938 159.285156 277.457031 158.777344 C 280.214844 157.363281 282.140625 155.183594 283.039062 152.179688 C 283.703125 149.957031 283.566406 147.761719 282.640625 145.628906 C 282.507812 145.324219 282.292969 145.054688 282.152344 144.75 C 282.058594 144.542969 281.96875 144.304688 281.96875 144.082031 C 281.964844 143.789062 282.140625 143.546875 282.425781 143.445312 C 282.765625 143.320312 283.117188 143.351562 283.359375 143.625 C 283.59375 143.886719 283.789062 144.191406 283.945312 144.507812 C 285.058594 146.785156 285.40625 149.164062 284.890625 151.660156 C 284.238281 154.777344 282.617188 157.257812 280.058594 159.152344 C 279.050781 159.898438 277.929688 160.394531 276.785156 160.863281 C 276.003906 161.1875 275.214844 161.488281 274.414062 161.804688 C 274.414062 161.804688 274.417969 161.84375 274.441406 161.867188 C 274.902344 162.367188 274.828125 162.875 274.242188 163.210938 C 273.285156 163.761719 272.363281 164.386719 271.300781 164.730469 C 270.660156 164.9375 270.011719 165.101562 269.371094 165.300781 C 267.519531 165.871094 265.621094 165.980469 263.703125 165.855469 C 262.433594 165.773438 261.203125 165.480469 259.976562 165.171875 C 258.046875 164.6875 256.335938 163.769531 254.785156 162.535156 C 252.988281 161.105469 251.464844 159.425781 250.289062 157.453125 C 248.992188 155.277344 248.078125 152.949219 247.769531 150.414062 C 247.371094 147.160156 247.875 144.035156 249.144531 141.023438 C 249.714844 139.667969 250.417969 138.390625 251.285156 137.203125 C 252.28125 135.839844 253.429688 134.621094 254.785156 133.605469 C 255.308594 133.210938 255.9375 133.328125 256.195312 133.855469 C 256.347656 134.175781 256.3125 134.460938 256.050781 134.691406 C 255.761719 134.945312 255.4375 135.160156 255.144531 135.40625 C 253.265625 136.964844 251.921875 138.921875 250.894531 141.113281 C 250.195312 142.601562 249.738281 144.160156 249.492188 145.78125 C 249.28125 147.15625 249.261719 148.535156 249.425781 149.917969 C 249.660156 151.894531 250.25 153.761719 251.105469 155.542969 C 251.710938 156.808594 252.523438 157.9375 253.457031 158.984375 C 253.53125 159.066406 253.625 159.132812 253.757812 159.167969 C 253.703125 159.066406 253.65625 158.960938 253.589844 158.867188 C 252.390625 157.214844 251.574219 155.378906 251.0625 153.414062 C 250.734375 152.144531 250.570312 150.847656 250.601562 149.539062 C 250.605469 149.265625 250.792969 149 250.886719 148.726562 C 250.914062 148.644531 250.960938 148.519531 250.921875 148.46875 C 250.617188 148.035156 250.683594 147.554688 250.757812 147.089844 C 251.109375 144.917969 251.816406 142.878906 253.054688 141.042969 C 253.414062 140.511719 253.804688 140.003906 254.207031 139.503906 C 254.34375 139.332031 254.542969 139.195312 254.738281 139.089844 C 255.074219 138.902344 255.398438 138.96875 255.621094 139.226562 C 255.898438 139.546875 255.921875 139.863281 255.671875 140.195312 C 255.550781 140.351562 255.417969 140.5 255.269531 140.632812 C 254.542969 141.292969 254.207031 142.195312 253.785156 143.039062 C 253.035156 144.535156 252.582031 146.117188 252.304688 147.769531 C 252.21875 148.304688 252.179688 148.789062 252.207031 149.332031 C 252.316406 151.382812 252.613281 153.378906 253.421875 155.28125 C 254.058594 156.769531 254.953125 158.089844 256.078125 159.25 C 256.625 159.816406 257.238281 160.316406 257.820312 160.847656 C 257.929688 160.949219 258.046875 161.042969 258.144531 161.152344 C 258.441406 161.492188 258.386719 161.976562 258.03125 162.253906 C 257.972656 162.300781 257.902344 162.339844 257.796875 162.410156 C 257.910156 162.511719 257.992188 162.628906 258.101562 162.683594 C 258.59375 162.9375 259.078125 163.207031 259.589844 163.40625 C 260.738281 163.859375 261.933594 164.136719 263.164062 164.222656 C 265.570312 164.386719 267.949219 164.214844 270.246094 163.410156 C 270.753906 163.230469 271.234375 162.960938 271.726562 162.730469 C 271.800781 162.695312 271.859375 162.628906 271.925781 162.574219 C 271.921875 162.542969 271.914062 162.511719 271.910156 162.484375 C 271.789062 162.476562 271.660156 162.453125 271.539062 162.46875 C 269.933594 162.695312 268.324219 162.730469 266.726562 162.410156 C 264.4375 161.949219 262.167969 161.394531 260.074219 160.324219 C 258 159.261719 256.324219 157.738281 255.082031 155.753906 C 254.253906 154.421875 253.652344 153 253.433594 151.4375 C 253.230469 149.972656 253.273438 148.519531 253.667969 147.085938 C 253.910156 146.203125 254.246094 145.363281 254.71875 144.582031 C 254.859375 144.347656 255.070312 144.121094 255.304688 143.988281 C 255.605469 143.8125 256.039062 143.949219 256.25 144.210938 C 256.488281 144.503906 256.457031 144.828125 256.28125 145.125 C 255.8125 145.914062 255.480469 146.757812 255.265625 147.644531 C 254.78125 149.632812 254.976562 151.566406 255.730469 153.457031 C 256.511719 155.40625 257.890625 156.851562 259.570312 158.054688 C 260.835938 158.964844 262.261719 159.511719 263.75 159.898438 C 265.097656 160.25 266.453125 160.570312 267.8125 160.878906 C 268.253906 160.980469 268.382812 161.066406 268.324219 160.457031 C 268.199219 159.191406 267.839844 158.023438 266.835938 157.164062 C 266.136719 156.566406 265.292969 156.246094 264.382812 156.136719 C 263.875 156.078125 263.355469 156.039062 262.84375 156.0625 C 261.148438 156.136719 259.769531 155.457031 258.589844 154.304688 C 258.0625 153.792969 257.78125 153.117188 257.460938 152.46875 C 256.796875 151.132812 256.71875 149.71875 256.886719 148.269531 C 256.921875 147.972656 257.042969 147.867188 257.289062 147.964844 C 258.566406 148.464844 259.855469 148.945312 261.105469 149.507812 C 261.792969 149.816406 262.332031 150.367188 262.757812 151.003906 C 262.816406 151.09375 262.871094 151.191406 262.910156 151.292969 C 263.078125 151.699219 262.832031 152.082031 262.402344 152.011719 C 262.042969 151.953125 261.683594 151.804688 261.363281 151.625 C 260.503906 151.144531 259.664062 150.621094 258.8125 150.125 C 258.71875 150.070312 258.589844 150.074219 258.480469 150.050781 C 258.464844 150.171875 258.410156 150.304688 258.445312 150.410156 C 258.679688 151.109375 258.867188 151.835938 259.195312 152.492188 C 259.597656 153.289062 260.332031 153.808594 261.085938 154.242188 C 261.410156 154.429688 261.863281 154.441406 262.257812 154.464844 C 262.988281 154.507812 263.730469 154.441406 264.449219 154.53125 C 266.648438 154.796875 267.953125 155.6875 269.097656 157.652344 Z M 269.097656 157.652344 " fill-opacity="1" fill-rule="nonzero"/><path fill="#0f3551" d="M 282.316406 160.84375 C 282.238281 160.796875 282.207031 160.769531 282.171875 160.753906 C 281.550781 160.488281 281.433594 159.957031 281.890625 159.457031 C 282.21875 159.101562 282.570312 158.765625 282.886719 158.402344 C 284.574219 156.46875 285.546875 154.195312 286.070312 151.703125 C 286.394531 150.148438 286.515625 148.585938 286.335938 147.015625 C 286.054688 144.582031 285.328125 142.304688 283.847656 140.3125 C 283.660156 140.058594 283.429688 139.839844 283.226562 139.597656 C 282.9375 139.257812 282.898438 138.886719 283.117188 138.597656 C 283.324219 138.3125 283.738281 138.191406 284.105469 138.371094 C 284.367188 138.5 284.613281 138.6875 284.808594 138.898438 C 285.855469 140.054688 286.523438 141.429688 287.058594 142.875 C 287.777344 144.824219 288.121094 146.835938 288.070312 148.917969 C 288.027344 150.628906 287.730469 152.296875 287.28125 153.941406 C 287.277344 153.960938 287.28125 153.980469 287.289062 154.082031 C 287.464844 153.761719 287.628906 153.511719 287.742188 153.238281 C 288.6875 150.964844 289.101562 148.59375 288.964844 146.140625 C 288.773438 142.761719 287.648438 139.714844 285.539062 137.050781 C 284.597656 135.859375 283.5 134.816406 282.335938 133.847656 C 281.308594 132.992188 280.148438 132.335938 278.984375 131.675781 C 277.605469 130.894531 276.101562 130.578125 274.589844 130.226562 C 273.210938 129.910156 271.828125 129.84375 270.433594 129.992188 C 268.203125 130.230469 266.058594 130.78125 264.117188 131.964844 C 262.488281 132.957031 260.988281 134.113281 259.730469 135.554688 C 259.417969 135.914062 259.132812 136.292969 258.847656 136.671875 C 258.488281 137.140625 257.855469 137.167969 257.46875 136.71875 C 257.242188 136.460938 257.222656 136.183594 257.472656 135.855469 C 257.914062 135.273438 258.367188 134.699219 258.84375 134.144531 C 260.238281 132.53125 261.925781 131.273438 263.816406 130.3125 C 266.058594 129.175781 268.429688 128.449219 270.96875 128.394531 C 272.523438 128.359375 274.082031 128.371094 275.597656 128.757812 C 276.449219 128.972656 277.273438 129.285156 278.105469 129.570312 C 280.644531 130.433594 282.777344 131.953125 284.726562 133.742188 C 286.894531 135.730469 288.519531 138.105469 289.546875 140.871094 C 290.46875 143.363281 290.824219 145.9375 290.585938 148.59375 C 290.285156 151.9375 289.105469 154.960938 287.261719 157.742188 C 285.90625 159.792969 284.253906 161.582031 282.335938 163.121094 C 281.882812 163.484375 281.398438 163.808594 280.917969 164.136719 C 280.550781 164.386719 280.113281 164.316406 279.851562 163.988281 C 279.59375 163.671875 279.625 163.222656 279.964844 162.929688 C 280.53125 162.4375 281.121094 161.96875 281.6875 161.480469 C 281.90625 161.289062 282.097656 161.066406 282.316406 160.84375 Z M 282.316406 160.84375 " fill-opacity="1" fill-rule="nonzero"/><path fill="#0f3551" d="M 272.152344 125 C 273.644531 124.886719 275.125 125 276.5625 125.40625 C 277.546875 125.679688 278.503906 126.0625 279.460938 126.433594 C 279.910156 126.605469 280.152344 126.960938 280.195312 127.460938 C 280.207031 127.601562 280.351562 127.730469 280.433594 127.867188 C 280.546875 127.789062 280.683594 127.730469 280.773438 127.632812 C 281.109375 127.242188 281.300781 127.1875 281.800781 127.507812 C 282.699219 128.082031 283.597656 128.660156 284.453125 129.296875 C 285.886719 130.363281 287.160156 131.605469 288.296875 132.984375 C 289.984375 135.039062 291.355469 137.285156 292.230469 139.808594 C 292.535156 140.683594 292.746094 141.589844 292.988281 142.484375 C 293.027344 142.636719 293.027344 142.800781 293.027344 142.957031 C 293.023438 143.453125 292.730469 143.800781 292.285156 143.839844 C 291.84375 143.878906 291.539062 143.617188 291.425781 143.117188 C 291.289062 142.519531 291.164062 141.921875 291 141.332031 C 290.050781 137.972656 288.246094 135.121094 285.800781 132.652344 C 284.714844 131.550781 283.550781 130.539062 282.269531 129.679688 C 281.386719 129.082031 280.472656 128.511719 279.503906 128.082031 C 278.453125 127.613281 277.332031 127.292969 276.226562 126.960938 C 274.070312 126.3125 271.863281 126.09375 269.628906 126.394531 C 268.285156 126.574219 267 126.964844 265.722656 127.445312 C 263.820312 128.15625 262.082031 129.125 260.484375 130.359375 C 259.574219 131.0625 258.757812 131.863281 258.019531 132.75 C 257.902344 132.894531 257.773438 133.035156 257.625 133.148438 C 257.316406 133.394531 257.035156 133.390625 256.699219 133.160156 C 256.433594 132.976562 256.304688 132.648438 256.4375 132.324219 C 256.550781 132.054688 256.707031 131.789062 256.898438 131.570312 C 258.601562 129.617188 260.628906 128.089844 262.941406 126.914062 C 264.507812 126.117188 266.132812 125.511719 267.867188 125.273438 C 269.105469 125.105469 270.367188 125.085938 271.617188 125.003906 C 271.796875 124.992188 271.976562 125 272.152344 125 Z M 272.152344 125 " fill-opacity="1" fill-rule="nonzero"/><path fill="#0f3551" d="M 265.835938 169.484375 C 263.425781 169.40625 261.195312 169.25 259.042969 168.578125 C 256.976562 167.9375 255.101562 166.914062 253.390625 165.589844 C 251.035156 163.765625 249.160156 161.53125 247.667969 158.96875 C 246.480469 156.941406 245.648438 154.769531 245.152344 152.472656 C 245.035156 151.917969 244.992188 151.332031 245.003906 150.765625 C 245.011719 150.101562 245.617188 149.789062 246.183594 150.132812 C 246.351562 150.234375 246.496094 150.46875 246.539062 150.664062 C 246.675781 151.28125 246.738281 151.914062 246.875 152.53125 C 247.339844 154.664062 248.179688 156.648438 249.292969 158.519531 C 250.511719 160.574219 252.039062 162.359375 253.878906 163.875 C 255.738281 165.40625 257.828125 166.496094 260.148438 167.191406 C 262.214844 167.808594 264.304688 167.921875 266.425781 167.789062 C 267.3125 167.730469 268.210938 167.660156 269.066406 167.453125 C 270.652344 167.070312 272.21875 166.585938 273.613281 165.703125 C 274.703125 165.011719 275.753906 164.253906 276.824219 163.53125 C 276.960938 163.4375 277.109375 163.34375 277.265625 163.292969 C 277.601562 163.179688 277.960938 163.300781 278.132812 163.566406 C 278.304688 163.824219 278.296875 164.183594 278.046875 164.441406 C 277.753906 164.75 277.4375 165.039062 277.101562 165.292969 C 274.792969 167.054688 272.289062 168.441406 269.433594 169.089844 C 268.816406 169.226562 268.183594 169.300781 267.558594 169.371094 C 266.929688 169.4375 266.296875 169.457031 265.835938 169.484375 Z M 265.835938 169.484375 " fill-opacity="1" fill-rule="nonzero"/><path fill="#0f3551" d="M 293.390625 148.507812 C 293.3125 150.257812 293.054688 151.96875 292.566406 153.648438 C 292.023438 155.503906 291.339844 157.300781 290.378906 158.984375 C 289.039062 161.328125 287.371094 163.40625 285.367188 165.21875 C 283.839844 166.597656 282.152344 167.75 280.308594 168.65625 C 277.765625 169.910156 275.089844 170.761719 272.285156 171.199219 C 271.828125 171.269531 271.367188 171.347656 270.90625 171.382812 C 270.382812 171.421875 270.0625 171.167969 270.007812 170.726562 C 269.953125 170.3125 270.230469 169.964844 270.730469 169.867188 C 271.863281 169.648438 273.003906 169.457031 274.136719 169.222656 C 275.683594 168.90625 277.144531 168.324219 278.578125 167.675781 C 281.125 166.53125 283.378906 164.957031 285.328125 162.972656 C 287.882812 160.375 289.742188 157.332031 290.816406 153.835938 C 291.5 151.605469 291.785156 149.320312 291.757812 146.988281 C 291.753906 146.769531 291.765625 146.527344 291.851562 146.332031 C 291.980469 146.050781 292.304688 145.941406 292.613281 146 C 292.988281 146.074219 293.261719 146.292969 293.292969 146.644531 C 293.347656 147.261719 293.359375 147.886719 293.390625 148.507812 Z M 293.390625 148.507812 " fill-opacity="1" fill-rule="nonzero"/><path fill="#0f3551" d="M 269.277344 154.011719 C 266.046875 154.140625 263.238281 151.777344 262.910156 148.421875 C 262.578125 144.996094 264.871094 141.835938 268.820312 141.554688 C 272.304688 141.304688 275.027344 143.988281 275.320312 147.367188 C 275.597656 150.570312 273.003906 153.9375 269.277344 154.011719 Z M 269.121094 143.164062 C 266.804688 143.058594 264.519531 145.066406 264.496094 147.742188 C 264.472656 150.261719 266.519531 152.359375 269.027344 152.386719 C 271.640625 152.414062 273.660156 150.425781 273.722656 147.824219 C 273.789062 145.070312 271.34375 143.097656 269.121094 143.164062 Z M 269.121094 143.164062 " fill-opacity="1" fill-rule="nonzero"/><path fill="#0f3551" d="M 273.609375 139.582031 C 273.601562 139.367188 273.582031 139.207031 273.585938 139.042969 C 273.617188 137.347656 273.222656 135.769531 272.296875 134.339844 C 272.066406 133.984375 271.773438 133.671875 271.515625 133.335938 C 271.429688 133.226562 271.335938 133.121094 271.277344 132.996094 C 271.011719 132.40625 271.339844 131.847656 271.980469 131.875 C 272.582031 131.898438 273.183594 131.972656 273.773438 132.085938 C 274.703125 132.261719 275.628906 132.472656 276.546875 132.703125 C 277.527344 132.949219 278.3125 133.574219 279.148438 134.09375 C 279.804688 134.5 280.371094 135 280.835938 135.613281 C 281.144531 136.019531 281.144531 136.386719 280.855469 136.683594 C 280.578125 136.960938 280.136719 136.953125 279.75 136.65625 C 278.957031 136.054688 278.160156 135.453125 277.371094 134.847656 C 276.558594 134.21875 275.601562 133.941406 274.625 133.71875 C 274.441406 133.679688 274.257812 133.640625 274.070312 133.625 C 273.960938 133.613281 273.847656 133.644531 273.734375 133.660156 C 273.761719 133.765625 273.769531 133.882812 273.816406 133.984375 C 274.09375 134.585938 274.394531 135.171875 274.648438 135.78125 C 274.773438 136.089844 274.839844 136.429688 274.882812 136.757812 C 274.917969 137.035156 275.023438 137.058594 275.253906 136.988281 C 275.878906 136.800781 276.5 136.609375 277.136719 136.464844 C 277.394531 136.40625 277.6875 136.425781 277.953125 136.472656 C 278.289062 136.535156 278.464844 136.769531 278.484375 137.066406 C 278.5 137.355469 278.339844 137.621094 278.03125 137.730469 C 277.765625 137.824219 277.480469 137.878906 277.199219 137.933594 C 276.132812 138.132812 275.160156 138.546875 274.292969 139.203125 C 274.152344 139.308594 273.996094 139.398438 273.84375 139.492188 C 273.796875 139.523438 273.734375 139.535156 273.609375 139.582031 Z M 273.609375 139.582031 " fill-opacity="1" fill-rule="nonzero"/><path fill="#0f3551" d="M 250.324219 133.554688 C 250.628906 133.574219 250.894531 133.726562 251.0625 134.027344 C 251.21875 134.308594 251.152344 134.566406 250.96875 134.824219 C 250.4375 135.582031 249.875 136.324219 249.394531 137.117188 C 248.027344 139.371094 247.203125 141.832031 246.757812 144.421875 C 246.613281 145.269531 246.574219 146.132812 246.464844 146.984375 C 246.441406 147.15625 246.347656 147.347656 246.226562 147.472656 C 245.984375 147.734375 245.652344 147.839844 245.304688 147.714844 C 244.980469 147.601562 244.886719 147.292969 244.902344 146.988281 C 244.945312 146.191406 244.976562 145.386719 245.089844 144.597656 C 245.53125 141.53125 246.570312 138.667969 248.15625 136.007812 C 248.570312 135.3125 249.058594 134.664062 249.527344 134.003906 C 249.707031 133.75 249.945312 133.554688 250.324219 133.554688 Z M 250.324219 133.554688 " fill-opacity="1" fill-rule="nonzero"/><path fill="#0f3551" d="M 274.941406 144.125 C 274.667969 143.820312 274.433594 143.539062 274.179688 143.277344 C 274.027344 143.121094 274.035156 142.976562 274.136719 142.800781 C 274.761719 141.734375 275.601562 140.878906 276.71875 140.355469 C 277.300781 140.082031 277.949219 139.949219 278.566406 139.75 C 278.980469 139.617188 279.394531 139.484375 279.804688 139.34375 C 280.503906 139.105469 280.734375 139.246094 280.769531 139.984375 C 280.820312 140.972656 280.84375 141.964844 280.605469 142.9375 C 280.265625 144.34375 279.617188 145.574219 278.433594 146.464844 C 277.871094 146.886719 277.238281 147.15625 276.5625 147.335938 C 276.175781 147.4375 276.09375 147.382812 276.007812 147.003906 C 275.824219 146.183594 275.808594 146.152344 276.566406 145.785156 C 278.179688 145 278.890625 143.640625 279.101562 141.9375 C 279.121094 141.78125 279.136719 141.625 279.152344 141.46875 C 279.1875 141.105469 279.113281 141.042969 278.753906 141.136719 C 277.75 141.398438 276.839844 141.835938 276.140625 142.621094 C 275.777344 143.027344 275.457031 143.464844 275.117188 143.886719 C 275.0625 143.957031 275.011719 144.027344 274.941406 144.125 Z M 274.941406 144.125 " fill-opacity="1" fill-rule="nonzero"/><path fill="#0f3551" d="M 251.777344 133.398438 C 251.199219 133.398438 250.808594 132.769531 251.085938 132.257812 C 251.191406 132.058594 251.335938 131.878906 251.488281 131.710938 C 253.746094 129.230469 256.417969 127.308594 259.4375 125.859375 C 260.273438 125.457031 261.128906 125.101562 261.984375 124.734375 C 262.160156 124.65625 262.359375 124.601562 262.554688 124.589844 C 262.929688 124.566406 263.25 124.835938 263.347656 125.214844 C 263.421875 125.488281 263.257812 125.855469 262.953125 126.007812 C 262.519531 126.222656 262.074219 126.414062 261.628906 126.605469 C 259.589844 127.484375 257.675781 128.582031 255.894531 129.910156 C 254.6875 130.808594 253.601562 131.816406 252.59375 132.925781 C 252.375 133.167969 252.144531 133.410156 251.777344 133.398438 Z M 251.777344 133.398438 " fill-opacity="1" fill-rule="nonzero"/><path fill="#0f3551" d="M 257.488281 140.664062 C 257.5 140.433594 257.503906 140.09375 257.539062 139.761719 C 257.578125 139.386719 257.765625 139.242188 258.140625 139.273438 C 258.269531 139.285156 258.398438 139.300781 258.519531 139.339844 C 259.527344 139.683594 260.632812 139.761719 261.542969 140.34375 C 262.515625 140.964844 263.460938 141.640625 264.0625 142.675781 C 264.1875 142.890625 264.21875 143.0625 264.03125 143.257812 C 263.839844 143.457031 263.671875 143.675781 263.503906 143.898438 C 263.351562 144.097656 263.238281 144.125 263.089844 143.882812 C 262.929688 143.613281 262.746094 143.355469 262.554688 143.101562 C 261.785156 142.082031 260.757812 141.457031 259.535156 141.132812 C 259.125 141.023438 259.011719 141.109375 259.046875 141.519531 C 259.171875 143.003906 259.636719 144.328125 260.878906 145.257812 C 261.238281 145.527344 261.652344 145.726562 262.054688 145.933594 C 262.273438 146.042969 262.367188 146.1875 262.328125 146.425781 C 262.289062 146.6875 262.25 146.953125 262.21875 147.214844 C 262.195312 147.410156 262.101562 147.464844 261.914062 147.417969 C 260.890625 147.160156 260 146.6875 259.332031 145.84375 C 259.015625 145.453125 258.628906 145.109375 258.363281 144.691406 C 257.847656 143.890625 257.695312 142.96875 257.589844 142.039062 C 257.542969 141.617188 257.527344 141.191406 257.488281 140.664062 Z M 257.488281 140.664062 " fill-opacity="1" fill-rule="nonzero"/><path fill="#0f3551" d="M 267.828125 139.234375 C 267.863281 139.585938 267.890625 139.941406 267.929688 140.296875 C 267.996094 140.835938 267.941406 140.925781 267.417969 141.082031 C 266.953125 141.21875 266.90625 141.195312 266.753906 140.746094 C 266.078125 138.742188 266.34375 136.871094 267.582031 135.148438 C 267.9375 134.652344 268.332031 134.183594 268.730469 133.71875 C 268.992188 133.414062 269.175781 133.417969 269.449219 133.707031 C 270.613281 134.9375 271.496094 136.320312 271.777344 138.023438 C 271.882812 138.644531 271.84375 139.265625 271.675781 139.875 C 271.582031 140.207031 271.484375 140.539062 271.386719 140.871094 C 271.367188 140.9375 271.351562 141.023438 271.304688 141.058594 C 271.042969 141.253906 270.796875 141.0625 270.550781 141.003906 C 270.398438 140.96875 270.195312 140.945312 270.222656 140.703125 C 270.25 140.46875 270.289062 140.234375 270.308594 140 C 270.4375 138.574219 270.148438 137.246094 269.375 136.035156 C 269.140625 135.671875 269.066406 135.671875 268.832031 136.046875 C 268.226562 137.023438 267.839844 138.066406 267.828125 139.234375 Z M 267.828125 139.234375 " fill-opacity="1" fill-rule="nonzero"/><path fill="#0f3551" d="M 264.582031 139.664062 C 264.3125 139.492188 264.082031 139.382812 263.890625 139.222656 C 262.914062 138.398438 261.773438 137.980469 260.519531 137.839844 C 260.457031 137.832031 260.402344 137.820312 260.34375 137.804688 C 259.828125 137.6875 259.695312 137.539062 259.71875 137.105469 C 259.742188 136.703125 260.007812 136.382812 260.441406 136.386719 C 260.878906 136.390625 261.324219 136.476562 261.75 136.582031 C 262.160156 136.683594 262.558594 136.847656 262.953125 137.003906 C 263.195312 137.101562 263.285156 137.035156 263.335938 136.785156 C 263.644531 135.21875 264.246094 133.785156 265.308594 132.570312 C 265.457031 132.402344 265.636719 132.253906 265.832031 132.144531 C 266.105469 131.996094 266.453125 132.078125 266.648438 132.292969 C 266.859375 132.519531 266.914062 132.835938 266.738281 133.113281 C 266.496094 133.496094 266.210938 133.851562 265.964844 134.234375 C 265.3125 135.230469 264.824219 136.292969 264.695312 137.488281 C 264.632812 138.046875 264.644531 138.613281 264.621094 139.175781 C 264.617188 139.308594 264.601562 139.445312 264.582031 139.664062 Z M 264.582031 139.664062 " fill-opacity="1" fill-rule="nonzero"/><path fill="#0f3551" d="M 269.507812 170.726562 C 269.503906 171.128906 269.140625 171.472656 268.730469 171.460938 C 268.347656 171.449219 268.066406 171.113281 268.070312 170.664062 C 268.074219 170.289062 268.410156 169.976562 268.816406 169.972656 C 269.160156 169.96875 269.511719 170.347656 269.507812 170.726562 Z M 269.507812 170.726562 " fill-opacity="1" fill-rule="nonzero"/></svg>